<svg width="23" height="29" viewBox="0 0 23 29" fill="none" xmlns="http://www.w3.org/2000/svg">
<path d="M18.6264 15.2232C18.6143 12.9698 19.5497 11.2715 21.4388 10.0193C20.3822 8.36728 18.7838 7.45867 16.6768 7.28356C14.6817 7.11175 12.499 8.55231 11.6998 8.55231C10.8552 8.55231 8.92373 7.34303 7.404 7.34303C4.26768 7.3959 0.93457 10.0722 0.93457 15.5172C0.93457 17.1263 1.204 18.7882 1.74287 20.4997C2.46338 22.7531 5.06084 28.2741 7.77031 28.1849C9.18711 28.1485 10.1892 27.088 12.0328 27.088C13.822 27.088 14.7483 28.1849 16.3286 28.1849C19.0623 28.1419 21.4115 23.1231 22.0957 20.8631C18.4296 18.9765 18.6264 15.3388 18.6264 15.2232V15.2232ZM15.4446 5.14585C16.9795 3.15682 16.8402 1.34621 16.7948 0.695312C15.4386 0.781217 13.8704 1.70304 12.9773 2.83633C11.9935 4.05221 11.4152 5.55555 11.5394 7.25052C13.0046 7.37277 14.3427 6.55006 15.4446 5.14585V5.14585Z" fill="black"/>
</svg>
