<svg width="25" height="25" viewBox="0 0 25 25" fill="none" xmlns="http://www.w3.org/2000/svg">
<path fill-rule="evenodd" clip-rule="evenodd" d="M9.14743 7.26077C9.07486 7.18802 8.98865 7.13029 8.89373 7.09091C8.79882 7.05152 8.69707 7.03125 8.59431 7.03125C8.49155 7.03125 8.3898 7.05152 8.29488 7.09091C8.19997 7.13029 8.11375 7.18802 8.04118 7.26077L3.35369 11.9483C3.28093 12.0208 3.22321 12.1071 3.18383 12.202C3.14444 12.2969 3.12417 12.3986 3.12417 12.5014C3.12417 12.6042 3.14444 12.7059 3.18383 12.8008C3.22321 12.8957 3.28093 12.982 3.35369 13.0545L8.04118 17.742C8.18788 17.8887 8.38685 17.9711 8.59431 17.9711C8.80177 17.9711 9.00073 17.8887 9.14743 17.742C9.29413 17.5953 9.37654 17.3964 9.37654 17.1889C9.37654 16.9814 9.29413 16.7825 9.14743 16.6358L5.0115 12.5014L9.14743 8.36702C9.22019 8.29445 9.27791 8.20824 9.31729 8.11332C9.35668 8.01841 9.37695 7.91666 9.37695 7.8139C9.37695 7.71113 9.35668 7.60938 9.31729 7.51447C9.27791 7.41955 9.22019 7.33334 9.14743 7.26077Z" fill="#6B6B75" stroke="#6B6B75"/>
<path fill-rule="evenodd" clip-rule="evenodd" d="M21.875 12.5C21.875 12.2928 21.7927 12.0941 21.6462 11.9476C21.4997 11.8011 21.301 11.7188 21.0938 11.7188H4.6875C4.4803 11.7188 4.28159 11.8011 4.13507 11.9476C3.98856 12.0941 3.90625 12.2928 3.90625 12.5C3.90625 12.7072 3.98856 12.9059 4.13507 13.0524C4.28159 13.1989 4.4803 13.2812 4.6875 13.2812H21.0938C21.301 13.2812 21.4997 13.1989 21.6462 13.0524C21.7927 12.9059 21.875 12.7072 21.875 12.5Z" fill="#6B6B75" stroke="#6B6B75"/>
</svg>
