<svg width="33" height="33" viewBox="0 0 33 33" fill="none" xmlns="http://www.w3.org/2000/svg">
<g clip-path="url(#clip0_1734_18609)">
<path d="M31.0674 6.14062H2.81738C1.78369 6.14062 0.942383 6.98193 0.942383 8.01563V14.2649C0.942383 16.5356 2.698 18.4211 4.9231 18.6218C5.38989 19.2644 6.13477 19.6514 6.94238 19.6514H26.9424C27.75 19.6514 28.4949 19.2644 28.9617 18.6218C31.1868 18.4211 32.9424 16.5356 32.9424 14.2649V8.01563C32.9424 6.98193 32.1011 6.14062 31.0674 6.14062ZM7.56738 7.39063H26.3174V9.89063H7.56738V7.39063ZM28.1924 17.1514C28.1924 17.3025 28.1655 17.4487 28.1123 17.5881C28.095 17.6343 28.0742 17.6799 28.051 17.7244C28.0505 17.7244 28.0505 17.7251 28.0505 17.7251C27.833 18.1426 27.4087 18.4014 26.9424 18.4014H6.94238C6.47607 18.4014 6.05176 18.1426 5.83374 17.7244C5.73999 17.5457 5.69238 17.353 5.69238 17.1514H10.0674C10.4124 17.1514 10.6924 16.8713 10.6924 16.5264C10.6924 16.1812 10.4124 15.9014 10.0674 15.9014H5.69238V14.6514H28.1924V17.1514ZM31.6924 14.2649C31.6924 15.6794 30.738 16.885 29.4399 17.2649C29.4404 17.252 29.4412 17.2393 29.4412 17.2263C29.4417 17.2012 29.4424 17.1763 29.4424 17.1514V14.0264C29.4424 13.6812 29.1624 13.4014 28.8174 13.4014H5.06738C4.72241 13.4014 4.44238 13.6812 4.44238 14.0264V17.1514C4.44238 17.1763 4.44312 17.2012 4.4436 17.2263C4.4436 17.2393 4.44434 17.252 4.44482 17.2649C3.14673 16.885 2.19238 15.6794 2.19238 14.2649V8.01563C2.19238 7.67114 2.4729 7.39063 2.81738 7.39063H6.31738V10.5156C6.31738 10.8606 6.59741 11.1406 6.94238 11.1406H26.9424C27.2874 11.1406 27.5674 10.8606 27.5674 10.5156V7.39063H31.0674C31.4119 7.39063 31.6924 7.67114 31.6924 8.01563V14.2649Z" fill="#404040"/>
<path d="M16.9424 27.1404C16.5972 27.1404 16.3174 26.8606 16.3174 26.5154V21.5156C16.3174 21.1704 16.5972 20.8906 16.9424 20.8906C17.2876 20.8906 17.5674 21.1704 17.5674 21.5156V26.5154C17.5674 26.8606 17.2876 27.1404 16.9424 27.1404Z" fill="#404040"/>
<path d="M12.5676 17.1484C12.2224 17.1484 11.9424 16.8687 11.9424 16.5234C11.9424 16.1782 12.2219 15.8984 12.5671 15.8984H12.5676C12.9128 15.8984 13.1926 16.1782 13.1926 16.5234C13.1926 16.8687 12.9128 17.1484 12.5676 17.1484Z" fill="#404040"/>
<path d="M7.56738 27.7654C7.22217 27.7654 6.94238 27.4856 6.94238 27.1404C6.94238 26.7952 7.22217 26.5154 7.56738 26.5154C10.3245 26.5154 12.5674 24.2725 12.5674 21.5156C12.5674 21.1704 12.8472 20.8906 13.1924 20.8906C13.5376 20.8906 13.8174 21.1704 13.8174 21.5156C13.8174 24.9619 11.0137 27.7654 7.56738 27.7654Z" fill="#404040"/>
<path d="M26.3164 27.7654C22.8701 27.7654 20.0664 24.9619 20.0664 21.5156C20.0664 21.1704 20.3462 20.8906 20.6914 20.8906C21.0366 20.8906 21.3164 21.1704 21.3164 21.5156C21.3164 24.2725 23.5593 26.5154 26.3164 26.5154C26.6616 26.5154 26.9414 26.7952 26.9414 27.1404C26.9414 27.4856 26.6616 27.7654 26.3164 27.7654Z" fill="#404040"/>
</g>
<defs>
<clipPath id="clip0_1734_18609">
<rect width="32" height="32" fill="white" transform="translate(0.942383 0.953125)"/>
</clipPath>
</defs>
</svg>
