<svg width="41" height="32" viewBox="0 0 41 32" fill="none" xmlns="http://www.w3.org/2000/svg">
<path d="M4.77148 30.237H23.5366C21.5716 26.6879 16.6803 17.0093 13.4024 15.7313C10.2846 14.475 4.332 20.667 2.30788 22.5118V27.7734C2.30788 29.1692 3.45103 30.237 4.77148 30.237ZM34.7413 24.6991H36.4421C37.7954 24.6991 38.9057 23.5883 38.9057 22.235V4.22605C38.9057 2.86872 37.7994 1.76296 36.4421 1.76296H10.6989C9.34558 1.76296 8.23527 2.87277 8.23527 4.22605V5.53842H30.5147C32.8364 5.53842 34.7408 7.44232 34.7408 9.76447C34.7408 14.7427 34.7413 19.7209 34.7413 24.6991ZM36.4421 26.4616H34.7413V27.7739C34.7413 30.0638 32.8955 31.9798 30.5152 32H4.77148C2.44781 32 0.544922 30.0991 0.544922 27.7739V22.1244V9.76447C0.544922 7.43828 2.44528 5.53842 4.77148 5.53842H6.47231V4.22605C6.47231 1.89985 8.37267 0 10.6989 0H36.4421C38.7638 0 40.6682 1.9044 40.6682 4.22605V22.235C40.6682 24.5612 38.7683 26.4616 36.4421 26.4616ZM21.6464 23.2867C23.7998 19.7472 25.4395 17.7493 27.2247 17.0563C29.0023 16.3662 30.7325 16.93 32.9783 18.5439V9.76447C32.9783 8.40715 31.8721 7.30088 30.5147 7.30088H4.77148C3.41819 7.30088 2.30788 8.41119 2.30788 9.76447V20.1346C7.77003 15.1993 10.8105 12.8747 13.9859 14.0729C17.0021 15.117 20.138 20.6893 21.6464 23.2867ZM22.6471 25.033C23.5301 26.5904 24.4894 28.323 25.5481 30.237H30.5147C31.868 30.237 32.9783 29.1267 32.9783 27.7734V20.7514C30.7082 18.9304 29.1882 18.1787 27.8587 18.695C26.3761 19.2703 24.849 21.3091 22.6471 25.033Z" fill="black"/>
</svg>
