<svg width="33" height="33" viewBox="0 0 33 33" fill="none" xmlns="http://www.w3.org/2000/svg">
<g clip-path="url(#clip0_1734_18605)">
<path d="M23.5576 0.953125H8.55762C7.17896 0.953125 6.05762 2.07446 6.05762 3.45312V27.9531C6.05762 29.3318 7.17896 30.4531 8.55762 30.4531H9.18262V31.0781C9.18262 32.1118 10.0239 32.9531 11.0576 32.9531H11.6826C12.3721 32.9531 12.9326 32.3926 12.9326 31.7031V30.4531H19.1826V31.7031C19.1826 32.3926 19.7432 32.9531 20.4326 32.9531H21.0576C22.0913 32.9531 22.9326 32.1118 22.9326 31.0781V30.4531H23.5576C24.9363 30.4531 26.0576 29.3318 26.0576 27.9531V3.45312C26.0576 2.07446 24.9363 0.953125 23.5576 0.953125ZM11.6826 31.7031H11.0576C10.7131 31.7031 10.4326 31.4226 10.4326 31.0781V30.4531H11.6826L11.6833 31.7031C11.6833 31.7031 11.6833 31.7031 11.6826 31.7031ZM21.6826 31.0781C21.6826 31.4226 21.4021 31.7031 21.0576 31.7031H20.4326V30.4531H21.6826V31.0781ZM24.8076 27.9531C24.8076 28.6426 24.2471 29.2031 23.5576 29.2031H8.55762C7.86816 29.2031 7.30762 28.6426 7.30762 27.9531V12.9531H24.8076V27.9531ZM24.8076 11.7031H7.30762V3.45312C7.30762 2.76367 7.86816 2.20312 8.55762 2.20312H23.5576C24.2471 2.20312 24.8076 2.76367 24.8076 3.45312V11.7031Z" fill="#404040"/>
<path d="M14.1943 10.4531H9.81934C9.13013 10.4531 8.56934 9.89233 8.56934 9.20313V8.57813C8.56934 7.54419 9.4104 6.70312 10.4443 6.70312H13.5693C14.6033 6.70312 15.4443 7.54419 15.4443 8.57813V9.20313C15.4443 9.89233 14.8835 10.4531 14.1943 10.4531ZM10.4443 7.95313C10.0996 7.95313 9.81934 8.2334 9.81934 8.57813V9.20313H14.1946L14.1943 8.57813C14.1943 8.2334 13.9141 7.95313 13.5693 7.95313H10.4443Z" fill="#404040"/>
<path d="M13.5693 17.9531H10.4443C9.4104 17.9531 8.56934 17.1121 8.56934 16.0781V15.4531C8.56934 14.7639 9.13013 14.2031 9.81934 14.2031H14.1943C14.8835 14.2031 15.4443 14.7639 15.4443 15.4531V16.0781C15.4443 17.1121 14.6033 17.9531 13.5693 17.9531ZM9.81934 15.4531V16.0781C9.81934 16.4229 10.0996 16.7031 10.4443 16.7031H13.5693C13.9141 16.7031 14.1943 16.4229 14.1943 16.0781V15.4531H9.81934Z" fill="#404040"/>
<path d="M22.9326 27.9531C22.5874 27.9531 22.3076 27.6733 22.3076 27.3281V22.3281C22.3076 21.9829 22.5874 21.7031 22.9326 21.7031C23.2778 21.7031 23.5576 21.9829 23.5576 22.3281V27.3281C23.5576 27.6733 23.2778 27.9531 22.9326 27.9531Z" fill="#404040"/>
<path d="M22.9338 20.4531C22.5886 20.4531 22.3086 20.1733 22.3086 19.8281C22.3086 19.4829 22.5881 19.2031 22.9333 19.2031H22.9338C23.2791 19.2031 23.5588 19.4829 23.5588 19.8281C23.5588 20.1733 23.2791 20.4531 22.9338 20.4531Z" fill="#404040"/>
</g>
<defs>
<clipPath id="clip0_1734_18605">
<rect width="32" height="32" fill="white" transform="translate(0.0576172 0.953125)"/>
</clipPath>
</defs>
</svg>
