<svg width="31" height="31" viewBox="0 0 31 31" fill="none" xmlns="http://www.w3.org/2000/svg">
<path d="M28.1661 12.9729H27.1257V12.9193H15.5007V18.0859H22.8005C21.7355 21.0936 18.8738 23.2526 15.5007 23.2526C11.2207 23.2526 7.75065 19.7825 7.75065 15.5026C7.75065 11.2227 11.2207 7.7526 15.5007 7.7526C17.4763 7.7526 19.2736 8.4979 20.6421 9.71529L24.2956 6.06181C21.9887 3.91183 18.9029 2.58594 15.5007 2.58594C8.36742 2.58594 2.58398 8.36938 2.58398 15.5026C2.58398 22.6358 8.36742 28.4193 15.5007 28.4193C22.6339 28.4193 28.4173 22.6358 28.4173 15.5026C28.4173 14.6365 28.3282 13.7911 28.1661 12.9729Z" fill="#FFC107"/>
<path d="M4.07227 9.49054L8.31604 12.6028C9.46433 9.75985 12.2453 7.7526 15.4996 7.7526C17.4752 7.7526 19.2726 8.4979 20.6411 9.71529L24.2946 6.06181C21.9877 3.91183 18.9019 2.58594 15.4996 2.58594C10.5383 2.58594 6.23581 5.38692 4.07227 9.49054Z" fill="#FF3D00"/>
<path d="M15.4991 28.4156C18.8354 28.4156 21.867 27.1388 24.159 25.0625L20.1613 21.6796C18.8209 22.699 17.183 23.2503 15.4991 23.249C12.1394 23.249 9.28679 21.1068 8.21212 18.1172L4 21.3625C6.13771 25.5456 10.479 28.4156 15.4991 28.4156Z" fill="#4CAF50"/>
<path d="M28.1654 12.9677H27.125V12.9141H15.5V18.0807H22.7999C22.2904 19.5122 21.3728 20.763 20.1603 21.6787L20.1623 21.6774L24.16 25.0602C23.8771 25.3173 28.4167 21.9557 28.4167 15.4974C28.4167 14.6313 28.3275 13.7859 28.1654 12.9677Z" fill="#1976D2"/>
</svg>
