<svg width="48" height="33" viewBox="0 0 48 33" fill="none" xmlns="http://www.w3.org/2000/svg">
<g filter="url(#filter0_d_1734_18715)">
<path d="M42.8076 9.85938H40.5576V6.10938C40.5576 5.31373 40.2415 4.55066 39.6789 3.98805C39.1163 3.42545 38.3533 3.10938 37.5576 3.10938C37.0294 3.11248 36.5116 3.25643 36.0576 3.52638V3.10938C36.0576 2.31373 35.7415 1.55066 35.1789 0.988055C34.6163 0.425446 33.8533 0.109375 33.0576 0.109375C32.262 0.109375 31.4989 0.425446 30.9363 0.988055C30.3737 1.55066 30.0576 2.31373 30.0576 3.10938V9.85938H18.0576V3.10938C18.0576 2.31373 17.7415 1.55066 17.1789 0.988055C16.6163 0.425446 15.8533 0.109375 15.0576 0.109375C14.262 0.109375 13.4989 0.425446 12.9363 0.988055C12.3737 1.55066 12.0576 2.31373 12.0576 3.10938V3.52638C11.6036 3.25643 11.0858 3.11248 10.5576 3.10938C9.76197 3.10938 8.99891 3.42545 8.4363 3.98805C7.87369 4.55066 7.55762 5.31373 7.55762 6.10938V9.85938H5.30762C5.1087 9.85938 4.91794 9.93839 4.77729 10.079C4.63663 10.2197 4.55762 10.4105 4.55762 10.6094V13.6094C4.55762 13.8083 4.63663 13.9991 4.77729 14.1397C4.91794 14.2804 5.1087 14.3594 5.30762 14.3594H7.55762V18.1094C7.55762 18.905 7.87369 19.6681 8.4363 20.2307C8.99891 20.7933 9.76197 21.1094 10.5576 21.1094C11.0858 21.1063 11.6036 20.9623 12.0576 20.6924V21.1094C12.0576 21.905 12.3737 22.6681 12.9363 23.2307C13.4989 23.7933 14.262 24.1094 15.0576 24.1094C15.8533 24.1094 16.6163 23.7933 17.1789 23.2307C17.7415 22.6681 18.0576 21.905 18.0576 21.1094V14.3594H30.0576V21.1094C30.0576 21.905 30.3737 22.6681 30.9363 23.2307C31.4989 23.7933 32.262 24.1094 33.0576 24.1094C33.8533 24.1094 34.6163 23.7933 35.1789 23.2307C35.7415 22.6681 36.0576 21.905 36.0576 21.1094V20.6924C36.5116 20.9623 37.0294 21.1063 37.5576 21.1094C38.3533 21.1094 39.1163 20.7933 39.6789 20.2307C40.2415 19.6681 40.5576 18.905 40.5576 18.1094V14.3594H42.8076C43.0065 14.3594 43.1973 14.2804 43.3379 14.1397C43.4786 13.9991 43.5576 13.8083 43.5576 13.6094V10.6094C43.5576 10.4105 43.4786 10.2197 43.3379 10.079C43.1973 9.93839 43.0065 9.85938 42.8076 9.85938ZM6.05762 12.8594V11.3594H7.55762V12.8594H6.05762ZM10.5576 19.6094C10.1598 19.6094 9.77826 19.4513 9.49696 19.17C9.21565 18.8887 9.05762 18.5072 9.05762 18.1094V6.10938C9.05762 5.71155 9.21565 5.33002 9.49696 5.04871C9.77826 4.76741 10.1598 4.60938 10.5576 4.60938C10.9554 4.60938 11.337 4.76741 11.6183 5.04871C11.8996 5.33002 12.0576 5.71155 12.0576 6.10938V18.1094C12.0576 18.5072 11.8996 18.8887 11.6183 19.17C11.337 19.4513 10.9554 19.6094 10.5576 19.6094ZM16.5576 21.1094C16.5576 21.5072 16.3996 21.8887 16.1183 22.17C15.837 22.4513 15.4554 22.6094 15.0576 22.6094C14.6598 22.6094 14.2783 22.4513 13.997 22.17C13.7157 21.8887 13.5576 21.5072 13.5576 21.1094V3.10938C13.5576 2.71155 13.7157 2.33002 13.997 2.04871C14.2783 1.76741 14.6598 1.60938 15.0576 1.60938C15.4554 1.60938 15.837 1.76741 16.1183 2.04871C16.3996 2.33002 16.5576 2.71155 16.5576 3.10938V21.1094ZM18.0576 12.8594V11.3594H30.0576V12.8594H18.0576ZM34.5576 21.1094C34.5576 21.5072 34.3996 21.8887 34.1183 22.17C33.837 22.4513 33.4554 22.6094 33.0576 22.6094C32.6598 22.6094 32.2783 22.4513 31.997 22.17C31.7157 21.8887 31.5576 21.5072 31.5576 21.1094V3.10938C31.5576 2.71155 31.7157 2.33002 31.997 2.04871C32.2783 1.76741 32.6598 1.60938 33.0576 1.60938C33.4554 1.60938 33.837 1.76741 34.1183 2.04871C34.3996 2.33002 34.5576 2.71155 34.5576 3.10938V21.1094ZM39.0576 18.1094C39.0576 18.5072 38.8996 18.8887 38.6183 19.17C38.337 19.4513 37.9554 19.6094 37.5576 19.6094C37.1598 19.6094 36.7783 19.4513 36.497 19.17C36.2157 18.8887 36.0576 18.5072 36.0576 18.1094V6.10938C36.0576 5.71155 36.2157 5.33002 36.497 5.04871C36.7783 4.76741 37.1598 4.60938 37.5576 4.60938C37.9554 4.60938 38.337 4.76741 38.6183 5.04871C38.8996 5.33002 39.0576 5.71155 39.0576 6.10938V18.1094ZM42.0576 12.8594H40.5576V11.3594H42.0576V12.8594Z" fill="#404040"/>
</g>
<defs>
<filter id="filter0_d_1734_18715" x="0.557617" y="0.109375" width="47" height="32" filterUnits="userSpaceOnUse" color-interpolation-filters="sRGB">
<feFlood flood-opacity="0" result="BackgroundImageFix"/>
<feColorMatrix in="SourceAlpha" type="matrix" values="0 0 0 0 0 0 0 0 0 0 0 0 0 0 0 0 0 0 127 0" result="hardAlpha"/>
<feOffset dy="4"/>
<feGaussianBlur stdDeviation="2"/>
<feComposite in2="hardAlpha" operator="out"/>
<feColorMatrix type="matrix" values="0 0 0 0 0 0 0 0 0 0 0 0 0 0 0 0 0 0 0.25 0"/>
<feBlend mode="normal" in2="BackgroundImageFix" result="effect1_dropShadow_1734_18715"/>
<feBlend mode="normal" in="SourceGraphic" in2="effect1_dropShadow_1734_18715" result="shape"/>
</filter>
</defs>
</svg>
