<svg width="33" height="33" viewBox="0 0 33 33" fill="none" xmlns="http://www.w3.org/2000/svg">
<g clip-path="url(#clip0_1734_18637)">
<path d="M26.6907 6.17969C24.8357 6.17969 23.2908 7.53345 22.9927 9.30469H18.5645C18.219 9.30469 17.9395 9.58472 17.9395 9.92969C17.9395 10.2747 18.219 10.5547 18.5645 10.5547H22.9927C23.2908 12.3259 24.8357 13.6797 26.6907 13.6797C28.7588 13.6797 30.4414 11.9971 30.4414 9.92969C30.4414 7.8623 28.7588 6.17969 26.6907 6.17969ZM26.6907 12.4297C25.312 12.4297 24.1902 11.3084 24.1902 9.92969C24.1902 8.55103 25.312 7.42969 26.6907 7.42969C28.0696 7.42969 29.1914 8.55103 29.1914 9.92969C29.1914 11.3084 28.0696 12.4297 26.6907 12.4297Z" fill="#404040"/>
<path d="M26.9175 3.67969H24.5017C24.468 3.67969 24.4343 3.68213 24.4011 3.68774L5.36987 6.78784L2.58789 5.86084C2.20801 5.73413 1.78687 5.79834 1.46167 6.03272C1.13672 6.26709 0.942383 6.646 0.942383 7.04663V12.8127C0.942383 13.2134 1.13672 13.5923 1.46167 13.8267C1.67676 13.9814 1.93433 14.0623 2.1936 14.0623C2.32617 14.0623 2.45923 14.041 2.5874 13.9985L5.36914 13.0715L22.9399 15.9465V17.2429C21.5149 17.5327 20.4392 18.7954 20.4392 20.3047C20.4392 21.814 21.5149 23.0767 22.9399 23.3665V26.1797C22.9399 28.2471 24.6223 29.9297 26.6912 29.9297C28.7585 29.9297 30.4412 28.2471 30.4412 26.1797V14.9915C30.7048 14.7939 30.9531 14.574 31.1816 14.3352C32.3174 13.1528 32.9424 11.5884 32.9424 9.92969C32.9424 6.4834 30.2393 3.67969 26.9175 3.67969ZM4.69312 11.979L2.19238 12.8127V7.04712L4.69312 7.88037V11.979ZM22.9399 22.0728C22.2117 21.8147 21.6892 21.1196 21.6892 20.3047C21.6892 19.4897 22.2117 18.7947 22.9399 18.5366V22.0728ZM29.1912 26.1797C29.1912 27.5584 28.0698 28.6797 26.6899 28.6797C25.311 28.6797 24.1899 27.5584 24.1899 26.1797V16.1509L24.3162 16.1716C24.3494 16.1772 24.3831 16.1797 24.4167 16.1797H26.9175C27.6902 16.1797 28.4834 16.0298 29.1912 15.7153V26.1797ZM30.2798 13.4697C30.0342 13.7258 29.7617 13.9546 29.4688 14.1497C28.7056 14.6597 27.823 14.9297 26.9175 14.9297H24.4673L23.6648 14.7983L5.94312 11.8984V7.96094L24.5525 4.92969H26.9175C29.5505 4.92969 31.6924 7.17285 31.6924 9.92969C31.6924 11.2642 31.1912 12.521 30.2798 13.4697C31.1912 12.521 30.0342 13.7258 30.2798 13.4697Z" fill="#404040"/>
<path d="M16.0649 10.5547C15.7197 10.5547 15.4395 10.2749 15.4395 9.92969C15.4395 9.58447 15.719 9.30469 16.0642 9.30469H16.0649C16.4102 9.30469 16.6899 9.58447 16.6899 9.92969C16.6899 10.2749 16.4102 10.5547 16.0649 10.5547Z" fill="#404040"/>
</g>
<defs>
<clipPath id="clip0_1734_18637">
<rect width="32" height="32" fill="white" transform="translate(0.942383 0.804688)"/>
</clipPath>
</defs>
</svg>
