<svg width="25" height="25" viewBox="0 0 25 25" fill="none" xmlns="http://www.w3.org/2000/svg">
<path d="M23.803 0.554688V5.58695C23.803 7.50772 22.2402 9.07082 20.3191 9.07082H19.1578V8.29662H20.3191C21.8129 8.29662 23.0288 7.08114 23.0288 5.58695V0.554688H22.2546V5.58695C22.2546 6.65417 21.3863 7.52243 20.3191 7.52243H19.1578V7.22514C19.1578 4.82785 17.2072 2.87727 14.8099 2.87727H12.1901V0.554688H11.4159V2.87727H9.09328V0.554688H8.31908V2.87727H5.69921C3.30192 2.87727 1.35134 4.82785 1.35134 7.22514V22.2321H0.577148V24.5547H19.932V22.2321H19.1578V9.84501H20.3191C22.6668 9.84501 24.5771 7.93469 24.5771 5.58695V0.554688H23.803ZM18.3836 22.2321H17.6094V23.0063H19.1578V23.7805H1.35134V23.0063H16.8352V22.2321H2.12554V7.22514C2.12554 5.25482 3.72889 3.65146 5.69921 3.65146H14.8095C16.7802 3.65146 18.3836 5.25482 18.3836 7.22514V7.52243V9.84501V22.2321Z" fill="#404040"/>
<path d="M14.8989 7.52344H5.60856C4.9683 7.52344 4.44727 8.04447 4.44727 8.68473V12.5557C4.44727 13.196 4.9683 13.717 5.60856 13.717H14.8989C15.5391 13.717 16.0602 13.196 16.0602 12.5557V8.68473C16.0602 8.04447 15.5391 7.52344 14.8989 7.52344ZM15.286 12.5557C15.286 12.769 15.1126 12.9428 14.8989 12.9428H5.60856C5.39488 12.9428 5.22146 12.769 5.22146 12.5557V8.68473C5.22146 8.47144 5.39488 8.29763 5.60856 8.29763H14.8989C15.1126 8.29763 15.286 8.47144 15.286 8.68473V12.5557Z" fill="#404040"/>
<path d="M3.67458 20.6875H2.90039V21.4617H3.67458V20.6875Z" fill="#404040"/>
<path d="M5.22146 20.6875H4.44727V21.4617H5.22146V20.6875Z" fill="#404040"/>
<path d="M6.77224 20.6875H5.99805V21.4617H6.77224V20.6875Z" fill="#404040"/>
</svg>
