<svg width="22" height="23" viewBox="0 0 22 23" fill="none" xmlns="http://www.w3.org/2000/svg">
<path d="M21 19.6237V11.7977C21.0001 11.2532 20.889 10.7145 20.6735 10.2144C20.458 9.71439 20.1428 9.2636 19.747 8.88968L12.374 1.92169C12.0027 1.57061 11.511 1.375 11 1.375C10.489 1.375 9.99734 1.57061 9.626 1.92169L2.253 8.88968C1.85722 9.2636 1.54195 9.71439 1.3265 10.2144C1.11104 10.7145 0.999942 11.2532 1 11.7977V19.6237C1 20.1541 1.21071 20.6628 1.58579 21.0379C1.96086 21.413 2.46957 21.6237 3 21.6237H19C19.5304 21.6237 20.0391 21.413 20.4142 21.0379C20.7893 20.6628 21 20.1541 21 19.6237Z" stroke="#3C85FF" stroke-width="1.17" stroke-linecap="round" stroke-linejoin="round"/>
</svg>
