<svg width="32" height="28" viewBox="0 0 32 28" fill="none" xmlns="http://www.w3.org/2000/svg">
<path d="M3.06016 3.28906H2.34473V8.20911H3.06016V3.28906Z" fill="#404040"/>
<path d="M3.06016 12.5469H2.34473V17.4669H3.06016V12.5469Z" fill="#404040"/>
<path d="M31.3203 17.5397C27.3102 17.5397 22.9589 17.5397 19.4952 17.5397V14.2932C19.4952 14.0554 19.6654 13.8621 19.8745 13.8621H20.9325V13.0487H19.8745C19.2709 13.0487 18.7797 13.6069 18.7797 14.2932V17.5397H16.3442V14.2932C16.3442 13.6069 15.853 13.0487 15.2494 13.0487H14.1914V13.8621H15.2494C15.4585 13.8621 15.6288 14.0554 15.6288 14.2932V17.5397H13.3337C13.3337 15.2162 13.3337 3.43937 13.3337 1.11768C13.3337 0.893123 13.1734 0.710938 12.9759 0.710938H0.795215C0.597727 0.710938 0.4375 0.893123 0.4375 1.11768C0.4375 5.63353 0.4375 24.6157 0.4375 27.5933C0.4375 27.8178 0.597727 28 0.795215 28C18.1371 28 19.768 28 31.3203 28C31.5177 28 31.678 27.8178 31.678 27.5933V17.9465C31.678 17.7219 31.5177 17.5397 31.3203 17.5397ZM21.7903 18.3532V22.3634H13.3337V18.3532H21.7903ZM1.15293 1.52441H12.6182V9.96953H1.15293V1.52441ZM1.15293 10.783H12.6182C12.6182 15.5396 12.6182 19.505 12.6182 27.1865H1.15293V10.783ZM13.3337 23.1769H21.7903V27.1865H13.3337V23.1769ZM30.9625 27.1865H22.5057V22.7701V18.3532H30.9625V27.1865Z" fill="#404040"/>
<path d="M20.2402 19.9531H14.8838V20.7666H20.2402V19.9531Z" fill="#404040"/>
<path d="M20.2402 24.7734H14.8838V25.5869H20.2402V24.7734Z" fill="#404040"/>
<path d="M23.8362 26.0475H29.6337C29.8312 26.0475 29.9915 25.8653 29.9915 25.6408V23.3989C29.9915 23.1744 29.8312 22.9922 29.6337 22.9922H23.8362C23.6387 22.9922 23.4785 23.1744 23.4785 23.3989V25.6408C23.4785 25.8653 23.6387 26.0475 23.8362 26.0475ZM24.1939 23.8057H29.276V25.234H24.1939V23.8057Z" fill="#404040"/>
<path d="M24.7475 22.378C25.4473 22.378 26.0168 21.7308 26.0168 20.9348C26.0168 20.1394 25.4473 19.4922 24.7475 19.4922C24.0477 19.4922 23.4785 20.1394 23.4785 20.9348C23.4785 21.7308 24.0477 22.378 24.7475 22.378ZM24.7475 20.3057C25.0528 20.3057 25.3013 20.5879 25.3013 20.9348C25.3013 21.2823 25.0528 21.5645 24.7475 21.5645C24.4422 21.5645 24.1939 21.2823 24.1939 20.9348C24.1939 20.5879 24.4422 20.3057 24.7475 20.3057Z" fill="#404040"/>
<path d="M28.7212 22.378C29.421 22.378 29.9904 21.7308 29.9904 20.9348C29.9904 20.1394 29.421 19.4922 28.7212 19.4922C28.0213 19.4922 27.4521 20.1394 27.4521 20.9348C27.4521 21.7308 28.0213 22.378 28.7212 22.378ZM28.7212 20.3057C29.0265 20.3057 29.275 20.5879 29.275 20.9348C29.275 21.2823 29.0265 21.5645 28.7212 21.5645C28.4158 21.5645 28.1676 21.2823 28.1676 20.9348C28.1676 20.5879 28.4158 20.3057 28.7212 20.3057Z" fill="#404040"/>
</svg>
