<svg width="22" height="23" viewBox="0 0 22 23" fill="none" xmlns="http://www.w3.org/2000/svg">
<path d="M19.3333 1.5H2.66667C2.22464 1.5 1.80072 1.67559 1.48816 1.98816C1.17559 2.30072 1 2.72464 1 3.16667V19.8333C1 20.2754 1.17559 20.6993 1.48816 21.0118C1.80072 21.3244 2.22464 21.5 2.66667 21.5H19.3333C19.7754 21.5 20.1993 21.3244 20.5118 21.0118C20.8244 20.6993 21 20.2754 21 19.8333V3.16667C21 2.72464 20.8244 2.30072 20.5118 1.98816C20.1993 1.67559 19.7754 1.5 19.3333 1.5Z" stroke="#A1A1A1" stroke-width="1.17" stroke-linecap="round" stroke-linejoin="round"/>
<path d="M9.33301 15.388L12.1108 17.6102L16.5552 12.0547" stroke="#A1A1A1" stroke-width="1.17" stroke-linecap="round" stroke-linejoin="round"/>
<path d="M5.44434 6.5H16.5554" stroke="#A1A1A1" stroke-width="1.17" stroke-linecap="round" stroke-linejoin="round"/>
<path d="M5.44434 10.9453H9.88878" stroke="#A1A1A1" stroke-width="1.17" stroke-linecap="round" stroke-linejoin="round"/>
</svg>
