<svg width="147" height="75" viewBox="0 0 147 75" fill="none" xmlns="http://www.w3.org/2000/svg">
<g clip-path="url(#clip0_1646_19372)">
<path d="M21.59 48.2699C22.3488 47.6679 22.9595 46.9009 23.3754 46.0274C23.7914 45.1539 24.0015 44.1971 23.9899 43.2301C23.9899 37.7368 20.1586 34.4609 13.7337 34.4609H0V63.2463H13.7337C20.8659 63.2463 24.7898 60.0881 24.7898 54.3596C24.7593 53.1679 24.455 51.9992 23.9002 50.9433C23.3455 49.8875 22.5551 48.9729 21.59 48.2699ZM7.00581 51.6297H13.7422C15.4263 51.6297 17.7503 52.6377 17.7503 54.284C17.7503 56.4259 14.1548 56.4847 13.7422 56.4847H7.00581V51.6297ZM13.7422 45.1704H7.00581V41.0462H13.7422C16.2683 41.0462 16.9504 42.5329 16.9504 43.3225C16.9167 43.7845 16.9167 45.1788 13.7337 45.1788L13.7422 45.1704Z" fill="white"/>
<path d="M35.8882 41.9758C29.6318 41.9758 25.1016 46.5283 25.1016 52.8112C25.1016 59.0941 29.5476 63.6467 35.9218 63.6467C42.2961 63.6467 46.7926 59.1865 46.7926 52.8112C46.8398 51.372 46.5897 49.9385 46.0578 48.5998C45.5259 47.2611 44.7237 46.0459 43.701 45.0296C42.6783 44.0134 41.4569 43.2178 40.1128 42.6925C38.7688 42.1671 37.3308 41.9232 35.8882 41.9758ZM40.0479 52.8112C40.0479 55.0707 38.7764 57.347 35.9218 57.347C33.0673 57.347 31.8042 55.0707 31.8042 52.8112C31.8042 50.5517 33.0926 48.2335 35.9218 48.2335C38.5069 48.2335 40.0479 50.5601 40.0479 52.8112Z" fill="white"/>
<path d="M59.5749 42.0469C57.6099 42.041 55.6989 42.6882 54.1437 43.8864L53.9669 42.3157H47.8789V63.2223H54.5479V52.5716C54.5479 50.1441 56.232 48.313 58.3624 48.313C61.6548 48.313 61.9074 51.3957 61.9074 52.3448V63.2643H68.6437V52.3448C68.5932 46.1711 64.9724 42.0469 59.5749 42.0469Z" fill="white"/>
<path d="M86.26 40.0312L84.2812 42.5511C82.9981 41.9914 81.6052 41.7273 80.2057 41.7784C78.8063 41.7342 77.4126 41.9763 76.1105 42.4897C74.8084 43.0032 73.6256 43.7772 72.6347 44.764C71.6439 45.7508 70.8661 46.9295 70.3493 48.2275C69.8325 49.5256 69.5875 50.9154 69.6296 52.3115C69.6296 58.6868 73.7893 62.8026 80.231 62.8026C81.6288 62.8026 84.0033 63.3821 84.0033 65.5744C84.0033 67.7667 82.0498 68.6235 80.231 68.6235C78.2774 68.6235 76.2986 67.5735 76.2986 65.5744V64.5665H69.6296V65.5744C69.6296 71.1266 73.9914 74.9988 80.231 74.9988C86.4705 74.9988 90.706 71.2106 90.706 65.5744C90.7768 64.3711 90.5414 63.1695 90.0218 62.0813C89.5021 60.9931 88.7149 60.0536 87.7336 59.3503C90.5376 57.1328 90.7902 53.4706 90.7902 52.3199C90.858 50.3215 90.2664 48.3562 89.1061 46.7257L91.3544 43.8699L86.26 40.0312ZM84.1212 52.2947C84.1212 54.8145 82.5213 56.4945 80.231 56.4945C77.9406 56.4945 76.2986 54.8145 76.2986 52.2947C76.2986 49.7748 77.9153 47.9857 80.231 47.9857C82.5466 47.9857 84.1212 49.7748 84.1212 52.3115V52.2947Z" fill="white"/>
<path d="M108.068 43.526C106.578 42.4296 104.774 41.8406 102.923 41.8461C101.479 41.7834 100.037 42.0114 98.6826 42.5164C97.3285 43.0215 96.0902 43.7934 95.0415 44.786C94.0355 45.8417 93.2525 47.0884 92.7389 48.452C92.2254 49.8156 91.9919 51.2682 92.0523 52.7236C92.0523 56.0834 93.0964 58.9393 95.0584 60.888C96.0817 61.848 97.286 62.5956 98.6015 63.0873C99.9169 63.579 101.317 63.8051 102.721 63.7522H102.805C104.72 63.7121 106.574 63.078 108.11 61.9379L108.22 63.1811H114.594V42.3501H108.144L108.068 43.526ZM103.344 48.0786C106.451 48.0786 107.849 50.4473 107.849 52.7908C107.849 55.1343 106.451 57.4945 103.344 57.4945C102.127 57.4432 100.977 56.9248 100.133 56.0475C99.2903 55.1702 98.8196 54.0019 98.8196 52.7866C98.8196 51.5713 99.2903 50.4029 100.133 49.5256C100.977 48.6483 102.127 48.1299 103.344 48.0786Z" fill="white"/>
<path d="M123.166 34.4844H116.506V63.2362H123.166V34.4844Z" fill="white"/>
<path d="M135.148 41.9758C128.9 41.9758 124.361 46.5283 124.361 52.8112C124.361 59.0941 128.807 63.6467 135.19 63.6467C141.573 63.6467 146.052 59.1865 146.052 52.8112C146.1 51.372 145.849 49.9385 145.318 48.5998C144.786 47.2611 143.983 46.0459 142.961 45.0296C141.938 44.0134 140.717 43.2178 139.373 42.6925C138.029 42.1671 136.591 41.9232 135.148 41.9758ZM139.308 52.8112C139.308 55.0707 138.036 57.347 135.19 57.347C132.344 57.347 131.064 55.0707 131.064 52.8112C131.064 50.5517 132.352 48.2335 135.19 48.2335C137.767 48.2335 139.308 50.5601 139.308 52.8112Z" fill="white"/>
<path d="M37.8659 21.2221L37.908 21.1633V21.1045C37.908 21.0541 37.9669 21.0121 37.9922 20.9701C38.2874 20.5776 38.6141 20.2096 38.969 19.8697C39.4718 19.3605 40.0377 18.9173 40.6531 18.551L60.9295 3.07054C61.22 2.80635 61.5327 2.56749 61.8642 2.35658C62.4309 1.98022 63.0454 1.6808 63.6914 1.46622C65.3686 0.903495 67.1843 0.903495 68.8616 1.46622H68.9879C69.764 1.74087 70.4937 2.13172 71.1519 2.62537C71.2424 2.68499 71.3295 2.74949 71.413 2.81856L78.0483 7.85832H78.0904L78.3851 8.1103L97.4826 22.734L97.5921 22.818H97.6426L99.4362 24.2711C100.064 24.6578 100.787 24.8615 101.524 24.8591C102.318 24.8608 103.095 24.6284 103.756 24.191C104.418 23.7536 104.935 23.1308 105.243 22.4009C105.551 21.6711 105.636 20.8667 105.486 20.089C105.337 19.3113 104.961 18.595 104.404 18.0302L104.034 17.7446L103.933 17.669L85.7614 3.72571C85.7386 3.71667 85.7184 3.70226 85.7024 3.68372L85.4414 3.49053C85.221 3.31931 85.0427 3.10018 84.92 2.84981C84.7973 2.59945 84.7336 2.32446 84.7336 2.04579C84.7336 1.76713 84.7973 1.49214 84.92 1.24177C85.0427 0.99141 85.221 0.772278 85.4414 0.601065L85.7024 0.391075C86.0269 0.137682 86.4271 0 86.8392 0C87.2513 0 87.6515 0.137682 87.976 0.391075L88.1781 0.542268L88.2286 0.584265L105.752 13.99L106.248 14.326C106.353 14.3962 106.455 14.4719 106.551 14.5528H106.61V14.5948C106.796 14.746 106.947 14.8804 107.09 15.0148C107.487 15.4032 107.842 15.831 108.151 16.2915C108.185 16.34 108.216 16.3905 108.244 16.4427C109.103 17.7464 109.555 19.2755 109.541 20.8357C109.538 22.958 108.692 24.9928 107.188 26.4935C105.683 27.9942 103.644 28.8383 101.516 28.8405C100.678 28.8428 99.8456 28.7123 99.0488 28.4541H98.931H98.8383C98.2967 28.2642 97.7772 28.0164 97.289 27.715C96.8666 27.4521 96.4691 27.1513 96.1017 26.8162L75.8589 11.2182L68.9879 5.96841L68.9289 5.91801L68.7773 5.80041C68.1048 5.30148 67.2961 5.01823 66.4585 4.98823C65.6209 4.95823 64.7939 5.18289 64.0872 5.63242L63.4893 6.0944L63.4388 6.1364L57.4266 10.731L57.3592 10.7814L57.0982 10.9914H57.0308L44.0465 20.9785L43.8949 21.0961L43.8107 21.1633L41.7309 22.7508C41.1165 23.3911 40.7045 24.1974 40.546 25.0695C40.3876 25.9416 40.4897 26.8409 40.8397 27.6556C41.1897 28.4702 41.7721 29.1642 42.5145 29.6512C43.2568 30.1382 44.1264 30.3966 45.0149 30.3944C45.8225 30.3923 46.6154 30.1779 47.3136 29.7729L65.2155 16.0563L65.2913 15.9975L65.4934 15.8547C65.8103 15.6136 66.1979 15.483 66.5965 15.483C66.9951 15.483 67.3826 15.6136 67.6995 15.8547L67.8932 15.9975L67.9774 16.0563L75.8589 22.0956C76.0527 22.247 76.2143 22.4354 76.3342 22.6498C76.4541 22.8642 76.53 23.1003 76.5575 23.3443C76.5849 23.5883 76.5633 23.8353 76.494 24.0708C76.4247 24.3064 76.309 24.5258 76.1537 24.7163L75.9432 24.9599C75.6429 25.3272 75.2105 25.5627 74.7384 25.6161C74.2663 25.6694 73.7921 25.5364 73.417 25.2455L66.5965 20.0293L50.8334 32.0912C50.428 32.4769 49.982 32.8177 49.5029 33.1075H49.4524C49.0082 33.3762 48.5403 33.6039 48.0546 33.7879L47.7515 33.8971C46.8711 34.1998 45.9461 34.3531 45.0149 34.3506C43.4782 34.3492 41.9704 33.9342 40.6505 33.1492C39.3306 32.3643 38.2475 31.2386 37.5154 29.8908C36.7834 28.5431 36.4296 27.0232 36.4913 25.4916C36.5529 23.96 37.0278 22.4733 37.8659 21.1885V21.2221Z" fill="white"/>
</g>
<defs>
<clipPath id="clip0_1646_19372">
<rect width="146.053" height="75" fill="white"/>
</clipPath>
</defs>
</svg>
