<svg width="21" height="19" viewBox="0 0 21 19" fill="none" xmlns="http://www.w3.org/2000/svg">
<path fill-rule="evenodd" clip-rule="evenodd" d="M14.6407 1C17.7384 1 20.0742 3.47704 20.0742 6.76182V13.0232C20.0742 14.7044 19.4677 16.2232 18.3654 17.3009C17.3765 18.2663 16.0938 18.7778 14.6556 18.7778H5.49003C4.05468 18.7778 2.77282 18.2672 1.78306 17.3009C0.68073 16.2232 0.0742188 14.7044 0.0742188 13.0232V6.76182C0.0742188 3.47704 2.41003 1 5.50771 1H14.6407ZM14.6407 2.36752H5.50771C3.16817 2.36752 1.46957 4.2155 1.46957 6.76182V13.0232C1.46957 14.3388 1.93096 15.514 2.76817 16.3317C3.49003 17.0383 4.43236 17.4103 5.49282 17.4103H14.6407C14.6426 17.4084 14.65 17.4103 14.6556 17.4103C15.717 17.4103 16.6584 17.0383 17.3803 16.3317C18.2184 15.514 18.6789 14.3388 18.6789 13.0232V6.76182C18.6789 4.2155 16.9803 2.36752 14.6407 2.36752ZM16.1068 6.58751C16.3496 6.88016 16.304 7.31047 16.0054 7.54933L11.8714 10.8423C11.3486 11.2489 10.7235 11.4522 10.0993 11.4522C9.47701 11.4522 8.85654 11.2508 8.33747 10.8478L4.16538 7.55116C3.86492 7.31412 3.8184 6.88289 4.05934 6.58933C4.30213 6.29668 4.7412 6.25019 5.04073 6.48631L9.2091 9.77931C9.73282 10.1859 10.4705 10.1859 10.9979 9.77566L15.1245 6.48814C15.424 6.24837 15.8631 6.29395 16.1068 6.58751Z" fill="#A2A2A2"/>
</svg>
