<svg width="33" height="33" viewBox="0 0 33 33" fill="none" xmlns="http://www.w3.org/2000/svg">
<g clip-path="url(#clip0_1734_18647)">
<path d="M16.0576 22.9766C10.6814 22.9766 6.30762 18.6028 6.30762 13.2266C6.30762 7.85034 10.6814 3.47656 16.0576 3.47656C21.4338 3.47656 25.8076 7.85034 25.8076 13.2266C25.8076 18.6028 21.4338 22.9766 16.0576 22.9766ZM16.0576 4.72656C11.3706 4.72656 7.55762 8.53979 7.55762 13.2266C7.55762 17.9133 11.3706 21.7266 16.0576 21.7266C20.7446 21.7266 24.5576 17.9133 24.5576 13.2266C24.5576 8.53979 20.7446 4.72656 16.0576 4.72656Z" fill="#404040"/>
<path d="M16.0576 19.8516C12.4045 19.8516 9.43262 16.8796 9.43262 13.2266C9.43262 9.57349 12.4045 6.60156 16.0576 6.60156C19.7107 6.60156 22.6826 9.57349 22.6826 13.2266C22.6826 16.8796 19.7107 19.8516 16.0576 19.8516ZM16.0576 7.85156C13.0937 7.85156 10.6826 10.2627 10.6826 13.2266C10.6826 16.1904 13.0937 18.6016 16.0576 18.6016C19.0215 18.6016 21.4326 16.1904 21.4326 13.2266C21.4326 10.2627 19.0215 7.85156 16.0576 7.85156Z" fill="#404040"/>
<path d="M16.6826 9.78906H14.1826C13.8376 9.78906 13.5576 10.0691 13.5576 10.4141V16.0391C13.5576 16.384 13.8376 16.6641 14.1826 16.6641C14.5276 16.6641 14.8076 16.384 14.8076 16.0391V13.8516H16.6826C17.7163 13.8516 18.5576 13.0103 18.5576 11.9766V11.6641C18.5576 10.6304 17.7163 9.78906 16.6826 9.78906ZM17.3076 11.9766C17.3076 12.321 17.0271 12.6016 16.6826 12.6016H14.8076V11.0391H16.6826C17.0271 11.0391 17.3076 11.3196 17.3076 11.6641V11.9766Z" fill="#404040"/>
<path d="M16.0576 0.351562C8.95825 0.351562 3.18262 6.13843 3.18262 13.2515C3.18262 19.7727 10.54 27.1079 14.9363 31.4902C15.1733 31.7258 15.4001 31.9521 15.6152 32.1677C15.6438 32.1965 15.6746 32.2222 15.7083 32.2446C15.7163 32.2502 15.7251 32.2559 15.7339 32.261C15.7683 32.2822 15.8044 32.2998 15.8425 32.3135C15.8525 32.3171 15.8621 32.3203 15.8721 32.3235C15.9307 32.3416 15.9927 32.3516 16.0576 32.3516C16.1226 32.3516 16.1846 32.3416 16.2432 32.3235C16.2532 32.3203 16.2627 32.3171 16.2727 32.3135C16.3108 32.2998 16.3469 32.2822 16.3813 32.261C16.3901 32.2559 16.3989 32.2502 16.407 32.2446C16.4407 32.2222 16.4714 32.1965 16.5 32.1677C16.7808 31.8872 17.0808 31.5891 17.3965 31.2754C21.7114 26.9915 28.9326 19.8223 28.9326 13.2515C28.9326 6.13843 23.157 0.351562 16.0576 0.351562ZM16.6826 30.2229V27.4053C16.6826 27.0603 16.4026 26.7803 16.0576 26.7803C15.7126 26.7803 15.4326 27.0603 15.4326 27.4053V30.2202C13.3757 28.1665 10.7026 25.4573 8.50513 22.5398C5.80273 18.9509 4.43262 15.8259 4.43262 13.2515C4.43262 6.82788 9.64771 1.60156 16.0576 1.60156C22.4675 1.60156 27.6826 6.82788 27.6826 13.2515C27.6826 19.2217 20.8757 26.0583 16.6826 30.2229Z" fill="#404040"/>
<path d="M16.0588 25.4766C15.7136 25.4766 15.4336 25.1968 15.4336 24.8516C15.4336 24.5063 15.7131 24.2266 16.0583 24.2266H16.0588C16.4041 24.2266 16.6838 24.5063 16.6838 24.8516C16.6838 25.1968 16.4041 25.4766 16.0588 25.4766Z" fill="#404040"/>
</g>
<defs>
<clipPath id="clip0_1734_18647">
<rect width="32" height="32" fill="white" transform="translate(0.0576172 0.351562)"/>
</clipPath>
</defs>
</svg>
