<svg width="21" height="21" viewBox="0 0 21 21" fill="none" xmlns="http://www.w3.org/2000/svg">
<g clip-path="url(#clip0_2518_1331)">
<path d="M10.282 9.77486C12.6166 9.77486 14.5092 7.88224 14.5092 5.54759C14.5092 3.21293 12.6166 1.32031 10.282 1.32031C7.9473 1.32031 6.05469 3.21293 6.05469 5.54759C6.05469 7.88224 7.9473 9.77486 10.282 9.77486Z" stroke="#A2A2A2" stroke-width="1.17424" stroke-miterlimit="10"/>
<path d="M10.2803 19.0523C13.803 19.0523 17.5606 17.291 17.5606 17.291C17.5606 17.291 17.2083 16.469 16.3864 15.4122C15.447 14.3554 13.9205 12.4766 10.2803 12.4766C6.64015 12.4766 5.11364 14.2379 4.17424 15.4122C3.23485 16.469 3 17.291 3 17.291C3 17.291 6.75758 19.0523 10.2803 19.0523Z" stroke="#A2A2A2" stroke-width="1.17424" stroke-miterlimit="10"/>
</g>
<defs>
<clipPath id="clip0_2518_1331">
<rect width="20" height="20" fill="white" transform="translate(0.5 0.5)"/>
</clipPath>
</defs>
</svg>
