<svg width="343" height="254" viewBox="0 0 343 254" fill="none" xmlns="http://www.w3.org/2000/svg">
<g clip-path="url(#clip0_1646_19714)">
<path d="M104.36 241.579C98.7167 249.124 87.0033 249.918 87.0033 249.918C87.0033 249.918 84.4387 238.479 90.0816 230.933C95.7244 223.388 107.438 222.594 107.438 222.594C107.438 222.594 110.002 234.033 104.36 241.579Z" fill="#E6E6E6"/>
<path d="M75.6141 244.41C79.3377 249.389 87.067 249.913 87.067 249.913C87.067 249.913 88.7593 242.365 85.0358 237.386C81.3122 232.407 73.5829 231.883 73.5829 231.883C73.5829 231.883 71.8906 239.431 75.6141 244.41Z" fill="#E6E6E6"/>
<path d="M100.86 250.37H0V249.547H101.01L100.86 250.37Z" fill="#3F3D56"/>
<path d="M343 23.3281H275.824V123.453H343V23.3281Z" fill="#E6E6E6"/>
<path d="M339.412 28.6797H279.41V118.112H339.412V28.6797Z" fill="white"/>
<path d="M321.574 92.3125H318.67V102.35H321.574V92.3125Z" fill="#3F3D56"/>
<path d="M323.553 100.881L316.324 92.2031H302.249L293.648 100.568L293.822 100.679H293.76V118.078H323.473V100.679L323.553 100.881Z" fill="#3F3D56"/>
<path d="M316.436 92.0859L307.611 102.416V118.073H323.473V100.451L316.436 92.0859Z" fill="#3C85FF"/>
<path d="M317.218 109.422H313.979V112.281H317.218V109.422Z" fill="#3F3D56"/>
<path d="M317.218 104.469H313.979V107.282H317.218V104.469Z" fill="#3F3D56"/>
<path d="M317.218 109.422H313.979V112.281H317.218V109.422Z" fill="white"/>
<path d="M317.218 104.469H313.979V107.282H317.218V104.469Z" fill="white"/>
<path d="M305.412 117.563C305.412 117.563 305.482 116.11 306.905 116.279L305.412 117.563Z" fill="#E6E6E6"/>
<path d="M305.009 116.181C305.403 116.181 305.722 115.862 305.722 115.469C305.722 115.076 305.403 114.758 305.009 114.758C304.616 114.758 304.297 115.076 304.297 115.469C304.297 115.862 304.616 116.181 305.009 116.181Z" fill="#3C85FF"/>
<path d="M305.096 116.672H304.895V118.078H305.096V116.672Z" fill="#E6E6E6"/>
<path d="M250.998 23.3281H183.822V123.453H250.998V23.3281Z" fill="#E6E6E6"/>
<path d="M247.41 28.6797H187.408V118.112H247.41V28.6797Z" fill="white"/>
<path d="M297.095 61.9782L298.824 60.5975C297.481 60.4495 296.929 61.1809 296.703 61.7598C295.983 61.5211 295.197 61.5695 294.512 61.8949L297.971 63.1489C297.797 62.6835 297.493 62.2774 297.095 61.9782Z" fill="#3F3D56"/>
<path d="M222.439 59.2751L224.168 57.8943C222.825 57.7464 222.273 58.4778 222.047 59.0567C221.326 58.818 220.541 58.8664 219.855 59.1918L223.315 60.4458C223.14 59.9803 222.836 59.5742 222.439 59.2751Z" fill="#3F3D56"/>
<path d="M320.627 48.9313L322.356 47.5506C321.012 47.4026 320.46 48.134 320.235 48.713C319.514 48.4742 318.729 48.5226 318.043 48.8481L321.502 50.102C321.328 49.6366 321.024 49.2305 320.627 48.9313Z" fill="#3F3D56"/>
<path d="M231.764 82.3984H228.859V92.4363H231.764V82.3984Z" fill="#3F3D56"/>
<path d="M231.764 81.3984H228.859V91.4363H231.764V81.3984Z" fill="#3F3D56"/>
<path d="M236.152 94.1939L226.239 82.4375H206.789L194.902 93.9978L195.142 94.1517H195.057V118.197H236.119V94.1517L236.152 94.1939Z" fill="#3F3D56"/>
<path d="M226.392 82.2891L214.197 96.5649V118.202H236.118V93.8489L226.392 82.2891Z" fill="#3C85FF"/>
<path d="M224.383 105.859H219.906V110.187H224.383V105.859Z" fill="#3F3D56"/>
<path d="M224.383 99.3984H219.906V103.726H224.383V99.3984Z" fill="#3F3D56"/>
<path d="M224.383 105.859H219.906V110.187H224.383V105.859Z" fill="white"/>
<path d="M224.383 99.3984H219.906V103.726H224.383V99.3984Z" fill="white"/>
<path d="M230.932 105.859H226.455V110.187H230.932V105.859Z" fill="#3F3D56"/>
<path d="M230.932 99.3984H226.455V103.726H230.932V99.3984Z" fill="#3F3D56"/>
<path d="M230.932 105.859H226.455V110.187H230.932V105.859Z" fill="white"/>
<path d="M230.932 99.3984H226.455V103.726H230.932V99.3984Z" fill="white"/>
<path d="M153.962 34.4146C163.48 34.4146 171.195 26.7106 171.195 17.2073C171.195 7.70397 163.48 0 153.962 0C144.444 0 136.729 7.70397 136.729 17.2073C136.729 26.7106 144.444 34.4146 153.962 34.4146Z" fill="#FF6584"/>
<path d="M158.996 23.3281H91.8203V123.453H158.996V23.3281Z" fill="#E6E6E6"/>
<path d="M155.408 28.6797H95.4062V118.112H155.408V28.6797Z" fill="white"/>
<path d="M150.839 88.7368L138.741 74.3516H114.957L100.422 88.4875L100.716 88.6759H100.611V118.078H150.822V88.6759L150.839 88.7368Z" fill="#3F3D56"/>
<path d="M136.125 57.9314L137.758 56.6276C136.489 56.4879 135.968 57.1786 135.755 57.7252C135.074 57.4998 134.333 57.5455 133.686 57.8528L136.952 59.0368C136.787 58.5973 136.5 58.2139 136.125 57.9314Z" fill="#3F3D56"/>
<path d="M143.561 73.0078H140.818V82.4859H143.561V73.0078Z" fill="#3F3D56"/>
<path d="M138.93 74.1641L124.018 91.6205V118.079H150.822V88.2996L138.93 74.1641Z" fill="#3C85FF"/>
<path d="M111.951 117.6C111.951 117.6 112.017 116.228 113.361 116.388L111.951 117.6Z" fill="#E6E6E6"/>
<path d="M111.571 116.289C111.943 116.289 112.244 115.988 112.244 115.617C112.244 115.246 111.943 114.945 111.571 114.945C111.2 114.945 110.898 115.246 110.898 115.617C110.898 115.988 111.2 116.289 111.571 116.289Z" fill="#3C85FF"/>
<path d="M111.653 116.75H111.463V118.077H111.653V116.75Z" fill="#E6E6E6"/>
<path d="M117.963 117.6C117.963 117.6 118.028 116.228 119.373 116.388L117.963 117.6Z" fill="#E6E6E6"/>
<path d="M117.583 116.289C117.954 116.289 118.256 115.988 118.256 115.617C118.256 115.246 117.954 114.945 117.583 114.945C117.211 114.945 116.91 115.246 116.91 115.617C116.91 115.988 117.211 116.289 117.583 116.289Z" fill="#3C85FF"/>
<path d="M117.665 116.75H117.475V118.077H117.665V116.75Z" fill="#E6E6E6"/>
<path d="M103.725 117.6C103.725 117.6 103.79 116.228 105.134 116.388L103.725 117.6Z" fill="#E6E6E6"/>
<path d="M103.345 116.289C103.716 116.289 104.017 115.988 104.017 115.617C104.017 115.246 103.716 114.945 103.345 114.945C102.973 114.945 102.672 115.246 102.672 115.617C102.672 115.988 102.973 116.289 103.345 116.289Z" fill="#3C85FF"/>
<path d="M103.424 116.75H103.234V118.077H103.424V116.75Z" fill="#E6E6E6"/>
<path d="M132.939 95.0859H127.465V100.675H132.939V95.0859Z" fill="#3F3D56"/>
<path d="M132.939 102.688H127.465V108.276H132.939V102.688Z" fill="#3F3D56"/>
<path d="M132.939 95.0859H127.465V100.675H132.939V95.0859Z" fill="white"/>
<path d="M132.939 102.688H127.465V108.276H132.939V102.688Z" fill="white"/>
<path d="M140.509 95.0859H135.035V100.675H140.509V95.0859Z" fill="#3F3D56"/>
<path d="M140.509 102.688H135.035V108.276H140.509V102.688Z" fill="#3F3D56"/>
<path d="M140.509 95.0859H135.035V100.675H140.509V95.0859Z" fill="white"/>
<path d="M140.509 102.688H135.035V108.276H140.509V102.688Z" fill="white"/>
<path d="M148.08 95.0859H142.605V100.675H148.08V95.0859Z" fill="#3F3D56"/>
<path d="M148.08 102.688H142.605V108.276H148.08V102.688Z" fill="#3F3D56"/>
<path d="M148.08 95.0859H142.605V100.675H148.08V95.0859Z" fill="white"/>
<path d="M148.08 102.688H142.605V108.276H148.08V102.688Z" fill="white"/>
<path d="M342.427 123.966H91.9238C91.9238 123.966 142.785 111.737 217.697 111.876C218.117 111.876 218.537 111.877 218.958 111.88C220.452 111.885 221.955 111.895 223.467 111.91C224.65 111.923 225.838 111.939 227.031 111.957C227.547 111.964 228.062 111.973 228.58 111.982C228.788 111.986 228.992 111.99 229.197 111.993C229.672 112.002 230.15 112.012 230.631 112.022C231.532 112.04 232.436 112.061 233.343 112.083C234.138 112.103 234.936 112.125 235.739 112.148C236.044 112.155 236.355 112.164 236.663 112.175C238.117 112.217 239.577 112.265 241.042 112.319C241.382 112.332 241.722 112.345 242.064 112.357C242.534 112.373 243.006 112.393 243.475 112.411C244.097 112.437 244.719 112.462 245.341 112.489C246.15 112.523 246.956 112.559 247.766 112.597C249.459 112.674 251.161 112.76 252.874 112.853C254.146 112.919 255.423 112.991 256.703 113.069C257.247 113.101 257.794 113.136 258.341 113.17C259.179 113.22 260.019 113.274 260.861 113.33C261.396 113.366 261.935 113.402 262.47 113.438C263.118 113.482 263.763 113.527 264.411 113.573C265.056 113.62 265.707 113.667 266.355 113.716C267.005 113.764 267.656 113.814 268.307 113.864C268.96 113.914 269.611 113.964 270.265 114.019C270.91 114.069 271.555 114.123 272.203 114.177C274.961 114.406 277.74 114.655 280.538 114.925C281.074 114.975 281.615 115.028 282.154 115.082C282.709 115.136 283.267 115.192 283.827 115.249C284.604 115.327 285.384 115.407 286.167 115.491C286.838 115.561 287.51 115.632 288.183 115.705C288.791 115.77 289.404 115.837 290.014 115.905L290.204 115.927C290.878 116.001 291.555 116.078 292.228 116.155C292.905 116.233 293.585 116.312 294.261 116.392C294.941 116.471 295.62 116.552 296.3 116.635C296.982 116.718 297.662 116.801 298.344 116.885C298.877 116.952 299.407 117.019 299.939 117.085C300.204 117.119 300.469 117.152 300.734 117.186C301.304 117.26 301.876 117.334 302.45 117.41C303.135 117.5 303.822 117.59 304.509 117.682C304.587 117.692 304.661 117.703 304.739 117.712C305.805 117.856 306.871 118.003 307.938 118.152C308.082 118.172 308.229 118.193 308.376 118.213C308.934 118.291 309.493 118.37 310.052 118.451C310.61 118.532 311.169 118.611 311.73 118.694C311.753 118.696 311.776 118.7 311.799 118.703C312.591 118.819 313.38 118.936 314.175 119.056C314.569 119.114 314.964 119.174 315.358 119.235C315.9 119.316 316.438 119.399 316.979 119.483C317.333 119.539 317.688 119.595 318.045 119.651C318.307 119.689 318.569 119.73 318.831 119.774C319.384 119.858 319.937 119.946 320.492 120.037C321.008 120.119 321.523 120.203 322.038 120.287C322.053 120.289 322.067 120.291 322.082 120.294C322.205 120.314 322.326 120.334 322.45 120.354C322.827 120.415 323.204 120.478 323.585 120.541C323.973 120.606 324.365 120.671 324.756 120.737C325.099 120.795 325.445 120.853 325.787 120.912C325.797 120.912 325.807 120.914 325.816 120.916C325.865 120.923 325.914 120.932 325.963 120.941C326.36 121.008 326.758 121.074 327.155 121.145C327.552 121.213 327.95 121.282 328.35 121.352C328.39 121.357 328.43 121.365 328.471 121.372C328.779 121.424 329.087 121.478 329.395 121.534C329.395 121.534 329.395 121.532 329.398 121.534C329.574 121.563 329.749 121.595 329.925 121.626C330.394 121.709 330.864 121.792 331.333 121.876C331.635 121.93 331.94 121.984 332.243 122.04C333.086 122.193 333.932 122.348 334.779 122.503C335.626 122.66 336.475 122.819 337.322 122.979C337.832 123.074 338.338 123.172 338.848 123.271C339.326 123.361 339.804 123.453 340.282 123.546C340.996 123.685 341.713 123.824 342.427 123.966Z" fill="#E6E6E6"/>
<path d="M342.35 124.35C341.715 124.223 341.078 124.099 340.442 123.976L340.207 123.93C339.729 123.836 339.252 123.745 338.775 123.655C338.264 123.556 337.758 123.458 337.249 123.363C336.403 123.203 335.555 123.044 334.708 122.888C333.967 122.75 333.226 122.615 332.486 122.482L332.173 122.425C331.914 122.377 331.654 122.331 331.396 122.285L331.264 122.261C330.837 122.184 330.41 122.108 329.984 122.033L329.786 121.998V122.002L329.325 121.919L329.299 121.914L329.255 121.906C328.972 121.855 328.689 121.805 328.405 121.757C328.364 121.75 328.331 121.744 328.298 121.739L327.088 121.53C326.709 121.463 326.332 121.399 325.954 121.336L325.898 121.327C325.847 121.317 325.803 121.309 325.758 121.303C325.418 121.245 325.113 121.194 324.81 121.143L321.975 120.673C321.46 120.588 320.945 120.505 320.43 120.423C319.875 120.332 319.322 120.245 318.771 120.16C318.507 120.116 318.248 120.075 317.989 120.038L316.918 119.87C316.378 119.785 315.84 119.702 315.3 119.621C314.905 119.56 314.512 119.501 314.118 119.443C313.322 119.322 312.533 119.205 311.742 119.09L311.673 119.081C311.313 119.028 310.954 118.976 310.596 118.925L309.995 118.838C309.437 118.757 308.879 118.678 308.322 118.6L307.885 118.539C306.816 118.39 305.75 118.243 304.687 118.1C304.626 118.093 304.561 118.084 304.493 118.074L298.295 117.273C297.614 117.189 296.934 117.106 296.252 117.023C295.573 116.94 294.895 116.859 294.216 116.78C293.539 116.701 292.86 116.621 292.184 116.544C291.511 116.466 290.834 116.389 290.161 116.315L289.969 116.293C289.361 116.225 288.748 116.158 288.141 116.094C287.511 116.025 286.882 115.958 286.256 115.893L286.126 115.879C285.343 115.797 284.564 115.716 283.787 115.638C283.228 115.581 282.671 115.525 282.115 115.471C281.577 115.417 281.036 115.364 280.502 115.314C277.763 115.049 274.96 114.798 272.17 114.567C271.51 114.512 270.872 114.458 270.234 114.408C269.579 114.354 268.929 114.304 268.276 114.253C267.626 114.203 266.976 114.154 266.325 114.106C265.745 114.062 265.162 114.02 264.584 113.978L264.383 113.963C263.736 113.917 263.091 113.872 262.444 113.829L260.834 113.72C259.995 113.664 259.156 113.611 258.317 113.56L258.171 113.551C257.673 113.52 257.176 113.489 256.679 113.459C255.4 113.384 254.124 113.312 252.853 113.243C251.143 113.149 249.441 113.064 247.747 112.987C246.939 112.95 246.133 112.914 245.324 112.879C244.76 112.855 244.196 112.831 243.632 112.809L242.983 112.783C242.672 112.771 242.361 112.759 242.051 112.748L241.027 112.71C239.563 112.656 238.104 112.608 236.652 112.566C236.342 112.555 236.033 112.546 235.729 112.539C234.924 112.516 234.127 112.494 233.333 112.474C232.427 112.453 231.523 112.432 230.622 112.413L228.573 112.373C228.055 112.364 227.54 112.356 227.026 112.348C225.831 112.328 224.645 112.314 223.462 112.301C221.951 112.285 220.449 112.275 218.956 112.271L218.841 112.27C218.46 112.269 218.078 112.267 217.696 112.267C217.281 112.266 216.862 112.266 216.447 112.266C143.109 112.266 92.5205 124.225 92.0153 124.346L91.832 123.587C92.3382 123.465 143.025 111.484 216.447 111.484C216.867 111.484 217.276 111.485 217.697 111.486C218.079 111.486 218.461 111.487 218.844 111.489L218.959 111.489C220.454 111.495 221.958 111.505 223.471 111.52C224.655 111.532 225.842 111.547 227.038 111.567C227.553 111.574 228.069 111.582 228.587 111.592L230.639 111.631C231.54 111.65 232.444 111.67 233.352 111.693C234.148 111.713 234.947 111.734 235.75 111.758C236.054 111.765 236.367 111.774 236.677 111.785C238.129 111.826 239.589 111.874 241.056 111.929L242.079 111.967C242.389 111.978 242.702 111.99 243.014 112.002L243.664 112.028C244.229 112.051 244.793 112.074 245.358 112.099C246.167 112.133 246.974 112.169 247.784 112.207C249.478 112.284 251.181 112.37 252.895 112.463C254.168 112.53 255.444 112.602 256.726 112.679C257.222 112.709 257.721 112.739 258.22 112.771L258.366 112.78C259.204 112.831 260.044 112.884 260.887 112.94L262.497 113.049C263.145 113.092 263.791 113.137 264.439 113.184L264.64 113.199C265.219 113.241 265.803 113.283 266.384 113.326C267.035 113.375 267.686 113.424 268.337 113.474C268.991 113.525 269.643 113.575 270.297 113.629C270.935 113.679 271.575 113.732 272.216 113.786C275.028 114.02 277.834 114.271 280.576 114.536C281.111 114.586 281.653 114.639 282.193 114.693C282.748 114.747 283.307 114.803 283.866 114.861C284.643 114.938 285.424 115.019 286.209 115.102L286.338 115.116C286.966 115.182 287.595 115.249 288.226 115.317C288.833 115.382 289.446 115.448 290.058 115.517L290.248 115.539C290.921 115.612 291.599 115.69 292.273 115.767C292.95 115.845 293.629 115.924 294.307 116.004C294.987 116.083 295.667 116.164 296.347 116.247C297.03 116.33 297.709 116.413 298.392 116.498L304.602 117.3C304.663 117.309 304.722 117.317 304.784 117.324C305.858 117.469 306.924 117.615 307.992 117.765L308.428 117.826C308.989 117.904 309.549 117.983 310.108 118.064L310.708 118.151C311.067 118.203 311.427 118.255 311.788 118.308C311.797 118.311 311.827 118.312 311.86 118.317C312.648 118.432 313.439 118.55 314.233 118.67C314.627 118.728 315.022 118.787 315.418 118.849C315.958 118.93 316.497 119.013 317.04 119.098L318.105 119.265C318.365 119.303 318.63 119.344 318.895 119.388C319.444 119.472 319.997 119.56 320.555 119.651C321.07 119.734 321.586 119.817 322.102 119.902C322.127 119.905 322.152 119.909 322.176 119.915L324.94 120.372C325.233 120.421 325.528 120.471 325.821 120.522L325.893 120.533C325.927 120.537 325.98 120.547 326.033 120.557L326.084 120.565C326.464 120.629 326.843 120.693 327.223 120.76L328.418 120.967C328.446 120.971 328.491 120.979 328.536 120.987C328.8 121.031 329.063 121.077 329.326 121.125L329.407 121.08L329.538 121.161C329.629 121.177 329.719 121.193 329.81 121.209L330.121 121.264C330.548 121.339 330.975 121.415 331.402 121.492L331.534 121.515C331.794 121.562 332.055 121.608 332.314 121.656L332.626 121.713C333.366 121.847 334.108 121.983 334.851 122.119C335.698 122.276 336.548 122.435 337.395 122.595C337.904 122.691 338.412 122.788 338.923 122.888C339.399 122.977 339.878 123.069 340.357 123.163L340.591 123.209C341.228 123.332 341.867 123.456 342.503 123.583L342.35 124.35Z" fill="#3F3D56"/>
<path d="M264.219 65.3958C280.514 65.3958 293.724 52.2063 293.724 35.9362C293.724 19.6661 280.514 6.47656 264.219 6.47656C247.924 6.47656 234.715 19.6661 234.715 35.9362C234.715 52.2063 247.924 65.3958 264.219 65.3958Z" fill="#3C85FF"/>
<path opacity="0.2" d="M286.167 16.2578C288.919 22.6857 289.293 29.8812 287.22 36.5587C285.148 43.2361 280.766 48.9602 274.856 52.7083C268.946 56.4563 261.894 57.984 254.96 57.0184C248.025 56.0527 241.661 52.6566 237.004 47.437C238.685 51.3642 241.201 54.8794 244.378 57.7392C247.555 60.599 251.317 62.735 255.402 63.9991C259.488 65.2633 263.8 65.6254 268.04 65.0603C272.28 64.4953 276.346 63.0166 279.957 60.7267C283.567 58.4369 286.636 55.3906 288.95 51.799C291.265 48.2073 292.77 44.1562 293.36 39.9262C293.951 35.6963 293.614 31.3886 292.372 27.3018C291.13 23.2149 289.013 19.4466 286.167 16.2578Z" fill="black"/>
<path d="M264.302 35.9375H264.383L265.842 119.46H262.762L264.302 35.9375Z" fill="#3F3D56"/>
<path d="M269.674 81.4297L268.994 80.1406L264.117 82.7045L264.797 83.9935L269.674 81.4297Z" fill="#3F3D56"/>
<path d="M193.779 120.165C193.779 120.165 193.904 117.557 196.459 117.86L193.779 120.165Z" fill="#3F3D56"/>
<path d="M193.058 117.686C193.764 117.686 194.336 117.115 194.336 116.409C194.336 115.704 193.764 115.133 193.058 115.133C192.352 115.133 191.779 115.704 191.779 116.409C191.779 117.115 192.352 117.686 193.058 117.686Z" fill="#3C85FF"/>
<path d="M193.211 118.562H192.85V121.085H193.211V118.562Z" fill="#3F3D56"/>
<path d="M240.338 120.711C240.338 120.711 240.462 118.104 243.017 118.407L240.338 120.711Z" fill="#3F3D56"/>
<path d="M239.615 118.225C240.321 118.225 240.893 117.654 240.893 116.949C240.893 116.243 240.321 115.672 239.615 115.672C238.908 115.672 238.336 116.243 238.336 116.949C238.336 117.654 238.908 118.225 239.615 118.225Z" fill="#3C85FF"/>
<path d="M239.769 119.102H239.408V121.624H239.769V119.102Z" fill="#3F3D56"/>
<path d="M163.645 116.204C163.645 116.204 163.769 113.596 166.324 113.9L163.645 116.204Z" fill="#3F3D56"/>
<path d="M162.921 113.725C163.627 113.725 164.2 113.154 164.2 112.449C164.2 111.743 163.627 111.172 162.921 111.172C162.215 111.172 161.643 111.743 161.643 112.449C161.643 113.154 162.215 113.725 162.921 113.725Z" fill="#3C85FF"/>
<path d="M163.076 114.594H162.715V117.116H163.076V114.594Z" fill="#3F3D56"/>
<path d="M183.312 112.782C183.312 112.782 183.437 110.175 185.992 110.478L183.312 112.782Z" fill="#3F3D56"/>
<path d="M182.591 110.295C183.297 110.295 183.87 109.724 183.87 109.019C183.87 108.314 183.297 107.742 182.591 107.742C181.885 107.742 181.312 108.314 181.312 109.019C181.312 109.724 181.885 110.295 182.591 110.295Z" fill="#3C85FF"/>
<path d="M182.744 111.172H182.383V113.694H182.744V111.172Z" fill="#3F3D56"/>
<path d="M232.578 117.641C232.578 117.641 232.703 115.034 235.257 115.337L232.578 117.641Z" fill="#3F3D56"/>
<path d="M231.857 115.163C232.563 115.163 233.135 114.591 233.135 113.886C233.135 113.181 232.563 112.609 231.857 112.609C231.151 112.609 230.578 113.181 230.578 113.886C230.578 114.591 231.151 115.163 231.857 115.163Z" fill="#3C85FF"/>
<path d="M232.009 116.039H231.648V118.562H232.009V116.039Z" fill="#3F3D56"/>
<path d="M196.783 7.11084L198.444 5.7842C197.154 5.64204 196.624 6.3448 196.407 6.90104C195.714 6.67164 194.96 6.71814 194.301 7.03084L197.625 8.23566C197.457 7.78847 197.165 7.39828 196.783 7.11084Z" fill="#3F3D56"/>
<path d="M222.047 20.6265L223.708 19.2998C222.417 19.1577 221.887 19.8604 221.67 20.4167C220.978 20.1873 220.223 20.2338 219.564 20.5465L222.888 21.7513C222.721 21.3041 222.429 20.9139 222.047 20.6265Z" fill="#3F3D56"/>
<path d="M194.799 32.1577L196.46 30.8311C195.169 30.6889 194.639 31.3917 194.422 31.9479C193.73 31.7185 192.975 31.765 192.316 32.0777L195.64 33.2825C195.473 32.8353 195.181 32.4452 194.799 32.1577Z" fill="#3F3D56"/>
<path d="M58.3839 128.295C60.09 127.765 60.8282 125.264 60.0327 122.709C59.2372 120.154 57.2093 118.512 55.5032 119.041C53.7971 119.571 53.0589 122.071 53.8544 124.627C54.6499 127.182 56.6778 128.824 58.3839 128.295Z" fill="#2F2E41"/>
<path d="M20.5512 102.836C20.5512 102.836 19.5807 122.216 21.5217 135.136C23.4627 148.056 25.7271 160.33 25.7271 160.33C25.7271 160.33 31.2266 156.131 34.4615 157.423L28.6386 112.526L20.5512 102.836Z" fill="#3C85FF"/>
<path d="M41.0933 81.6776C46.9891 81.6776 51.7686 76.9053 51.7686 71.0185C51.7686 65.1316 46.9891 60.3594 41.0933 60.3594C35.1975 60.3594 30.418 65.1316 30.418 71.0185C30.418 76.9053 35.1975 81.6776 41.0933 81.6776Z" fill="#947C7C"/>
<path d="M34.1382 73.7656L29.6094 85.3939L36.0792 88.3009L42.549 76.6727L34.1382 73.7656Z" fill="#947C7C"/>
<path d="M38.0103 84.8264C38.0103 84.8264 31.5497 80.546 28.6383 82.161L26.0503 88.2981C26.0503 88.2981 16.9925 99.6032 20.5509 108.001C24.1093 116.399 32.1967 126.089 32.1967 126.089L33.1672 130.611C33.1672 130.611 20.5509 147.085 21.8449 159.359L6.64062 200.703C6.64062 200.703 15.0515 204.256 43.1955 205.548C71.3396 206.84 71.3396 205.548 71.3396 205.548C71.3396 205.548 67.7811 136.749 56.7823 125.766L55.1648 120.598C55.1648 120.598 57.4293 106.063 52.2534 99.9262L50.5045 96.4337C47.8773 91.1873 43.4402 87.0652 38.0103 84.8264Z" fill="#2F2E41"/>
<path d="M54.1934 154.196L54.8404 162.917C54.8404 162.917 53.8699 174.222 60.3398 171.961C66.8097 169.7 61.6337 157.103 61.6337 157.103L60.6632 153.227L54.1934 154.196Z" fill="#947C7C"/>
<path d="M9.22843 199.086L5.67 233.647C5.67 233.647 1.14107 236.231 3.40553 243.337C5.67 250.443 5.02301 253.996 5.02301 253.996L7.28747 253.35L8.25796 244.629C8.25796 244.629 12.059 249.474 15.3748 250.443C17.6775 251.116 20.0582 251.634 21.623 249.831C23.4459 247.732 22.5664 244.49 20.0465 243.312C19.7916 243.192 19.5275 243.092 19.2568 243.014C16.9923 242.368 14.7279 233.647 14.7279 233.647L18.6098 217.82L24.4327 200.378L9.22843 199.086Z" fill="#2F2E41"/>
<path d="M53.2245 199.086L49.6661 233.647C49.6661 233.647 45.1372 236.231 47.4016 243.337C49.6661 250.443 49.0191 253.996 49.0191 253.996L51.2836 253.35L52.2541 244.629C52.2541 244.629 56.0551 249.474 59.3709 250.443C61.6736 251.116 64.0542 251.634 65.6191 249.831C67.442 247.732 66.5625 244.49 64.0426 243.312C63.7877 243.192 63.5236 243.092 63.2529 243.014C60.9884 242.368 58.7239 233.647 58.7239 233.647L62.6059 217.82L68.4288 200.378L53.2245 199.086Z" fill="#2F2E41"/>
<path opacity="0.4" d="M39.636 90.8852C39.636 90.8852 31.8722 95.4072 34.1366 105.743C36.4011 116.079 52.2523 160.331 52.2523 160.331C53.6368 158.985 55.358 158.035 57.2359 157.58C59.1138 157.126 61.0796 157.183 62.9277 157.747L48.3704 101.867C48.3704 101.867 49.3409 89.2702 39.636 90.8852Z" fill="black"/>
<path d="M40.931 88.9477C40.931 88.9477 33.1671 93.4697 35.4315 103.806C37.696 114.142 53.5472 158.393 53.5472 158.393C54.9317 157.047 56.6529 156.098 58.5308 155.643C60.4088 155.188 62.3745 155.246 64.2226 155.809L49.6653 99.9298C49.6653 99.9298 50.6358 87.3327 40.931 88.9477Z" fill="#3C85FF"/>
<path d="M50.9617 66.8856C50.9617 66.8856 52.6063 54.1064 39.1879 58.297C39.1879 58.297 29.6044 56.5413 26.4616 68.5105L23.2793 81.0573L24.8302 80.2144L25.5532 81.7925L28.0664 82.428L29.1418 80.2967L29.6621 82.8849L50.2463 84.9339C50.2463 84.9339 41.0271 79.4899 40.8809 69.7331L42.6369 71.586L50.9617 66.8856Z" fill="#2F2E41"/>
<path d="M28.1525 63.5861C31.0111 63.5861 33.3284 61.2723 33.3284 58.4181C33.3284 55.5638 31.0111 53.25 28.1525 53.25C25.2939 53.25 22.9766 55.5638 22.9766 58.4181C22.9766 61.2723 25.2939 63.5861 28.1525 63.5861Z" fill="#2F2E41"/>
<path d="M33.486 57.1592C33.4009 55.8479 32.8185 54.6184 31.8573 53.721C30.8961 52.8236 29.6284 52.3257 28.3125 52.3289C28.4194 52.3154 28.5253 52.2989 28.6343 52.2919C29.3126 52.2484 29.9928 52.3386 30.6362 52.5576C31.2796 52.7765 31.8735 53.1199 32.3839 53.568C32.8944 54.0161 33.3115 54.5602 33.6114 55.1693C33.9112 55.7784 34.088 56.4404 34.1316 57.1177C34.1752 57.795 34.0848 58.4742 33.8655 59.1166C33.6462 59.759 33.3024 60.352 32.8536 60.8617C32.4048 61.3714 31.8598 61.7878 31.2498 62.0872C30.6398 62.3866 29.9768 62.5632 29.2985 62.6067C29.1895 62.6137 29.0823 62.6109 28.9746 62.6112C30.2801 62.446 31.4735 61.7902 32.3117 60.7773C33.1499 59.7643 33.5698 58.4704 33.486 57.1592Z" fill="#2F2E41"/>
<path d="M41.0921 74.2486C41.9854 74.2486 42.7096 73.2363 42.7096 71.9876C42.7096 70.7389 41.9854 69.7266 41.0921 69.7266C40.1988 69.7266 39.4746 70.7389 39.4746 71.9876C39.4746 73.2363 40.1988 74.2486 41.0921 74.2486Z" fill="#947C7C"/>
</g>
<defs>
<clipPath id="clip0_1646_19714">
<rect width="343" height="254" fill="white"/>
</clipPath>
</defs>
</svg>
