<svg width="343" height="179" viewBox="0 0 343 179" fill="none" xmlns="http://www.w3.org/2000/svg">
<g clip-path="url(#clip0_1646_19480)">
<path d="M316.037 178.649C321.055 178.649 325.123 178.021 325.123 177.246C325.123 176.472 321.055 175.844 316.037 175.844C311.019 175.844 306.951 176.472 306.951 177.246C306.951 178.021 311.019 178.649 316.037 178.649Z" fill="#F2F2F2"/>
<path d="M326.638 43.3047H325.881V58.0314H326.638V43.3047Z" fill="#F2F2F2"/>
<path d="M318.309 33.8359H313.766V179H318.309V33.8359Z" fill="#F2F2F2"/>
<path d="M336.835 45.2321H295.238C294.781 45.2321 294.33 45.1423 293.914 44.9685C293.498 44.7947 293.127 44.541 292.825 44.2242C292.523 43.9074 292.297 43.5347 292.163 43.1309C292.028 42.7271 291.988 42.3014 292.044 41.8821L297.345 2.61077C297.443 1.89036 297.821 1.22784 298.409 0.74727C298.997 0.266699 299.754 0.00102723 300.538 0H331.535C332.319 0.00102713 333.075 0.266699 333.663 0.74727C334.251 1.22784 334.63 1.89036 334.728 2.61077L340.028 41.8821C340.085 42.3014 340.044 42.7271 339.91 43.1309C339.775 43.5347 339.549 43.9074 339.247 44.2242C338.945 44.541 338.574 44.7947 338.158 44.9685C337.742 45.1423 337.291 45.2321 336.835 45.2321Z" fill="#F2F2F2"/>
<path d="M326.259 60.487C327.723 60.487 328.91 59.3881 328.91 58.0326C328.91 56.677 327.723 55.5781 326.259 55.5781C324.796 55.5781 323.609 56.677 323.609 58.0326C323.609 59.3881 324.796 60.487 326.259 60.487Z" fill="#F2F2F2"/>
<path d="M47.5358 140.03C45.6231 146.175 40.0384 150.477 34.2128 154.131C33.3994 154.642 32.5857 155.14 31.7718 155.627C31.7663 155.629 31.7606 155.634 31.755 155.636C31.7158 155.66 31.6766 155.683 31.6401 155.707C31.4721 155.807 31.3041 155.907 31.1375 156.006L31.229 156.044C31.229 156.044 31.3189 156.089 31.2206 156.052C31.1913 156.04 31.1606 156.03 31.1315 156.019C27.7472 154.754 24.3027 153.397 21.7092 151.029C19.0187 148.57 17.4465 144.712 18.9033 141.482C19.0948 141.059 19.3367 140.656 19.6244 140.283C19.7426 140.126 19.8699 139.976 20.0024 139.829C20.806 138.921 21.8563 138.227 23.0454 137.819C24.2345 137.412 25.5193 137.305 26.7679 137.509C28.0165 137.714 29.1837 138.223 30.1495 138.984C31.1153 139.744 31.8449 140.73 32.2632 141.838C32.6912 138.148 29.4053 135.056 26.2431 132.775C23.0796 130.495 19.4849 128.012 18.8733 124.342C18.5317 122.3 19.2984 120.321 20.6951 118.732C20.7384 118.684 20.7815 118.636 20.8261 118.589C22.5262 116.739 24.9175 115.55 27.5222 115.262C32.3731 114.795 37.085 117.173 40.6091 120.297C46.2811 125.323 49.7101 133.042 47.5358 140.03Z" fill="#F2F2F2"/>
<path d="M38.4184 131.991C39.3494 133.332 40.0641 134.792 40.5401 136.325C40.9427 137.695 41.1218 139.112 41.0717 140.531C40.9418 143.451 40.0568 146.299 38.4911 148.836C37.3117 150.761 35.8744 152.539 34.2133 154.13C33.3999 154.641 32.5863 155.139 31.7723 155.626C31.7668 155.628 31.7611 155.633 31.7556 155.635C31.7164 155.659 31.6772 155.682 31.6407 155.706C31.4727 155.806 31.3046 155.906 31.1381 156.005C31.1381 156.005 31.3194 156.088 31.2211 156.05C31.1919 156.039 31.1612 156.029 31.132 156.018C31.4353 153.714 31.1382 151.377 30.2655 149.202C29.3927 147.027 27.9699 145.078 26.1161 143.517C24.2579 141.98 22.0337 140.872 19.625 140.282C19.7432 140.125 19.8704 139.975 20.003 139.828C20.9332 140.07 21.8386 140.387 22.7086 140.777C25.8183 142.16 28.3646 144.433 29.9706 147.261C31.4117 149.829 32.0319 152.724 31.7585 155.607C31.8975 155.49 32.0367 155.371 32.1718 155.253C34.7435 153.032 37.0276 150.483 38.5735 147.541C39.9146 145.05 40.5738 142.292 40.4929 139.509C40.3667 136.475 39.0614 133.665 37.1716 131.218C35.1002 128.608 32.6533 126.272 29.8987 124.276C27.1227 122.217 24.085 120.48 20.8534 119.104C20.7806 119.072 20.7235 119.016 20.6942 118.947C20.6648 118.877 20.6654 118.8 20.6957 118.731C20.7172 118.669 20.7643 118.618 20.8267 118.588C20.8587 118.575 20.8935 118.569 20.9284 118.571C20.9633 118.572 20.9974 118.581 21.0282 118.596C21.4272 118.766 21.8234 118.938 22.2165 119.118C25.4902 120.617 28.5502 122.486 31.3262 124.684C34.0077 126.801 36.5321 129.22 38.4184 131.991Z" fill="white"/>
<path d="M19.9242 155.508H40.8842C41.1141 155.508 41.3414 155.553 41.5509 155.641C41.7605 155.728 41.9476 155.856 42.0998 156.016C42.2519 156.175 42.3657 156.363 42.4335 156.567C42.5013 156.77 42.5216 156.985 42.4931 157.196L39.8224 176.984C39.7729 177.347 39.5822 177.681 39.286 177.923C38.9899 178.165 38.6086 178.299 38.2135 178.299H22.5949C22.1998 178.299 21.8185 178.165 21.5223 177.923C21.2262 177.681 21.0355 177.347 20.9859 176.984L18.3153 157.196C18.2867 156.985 18.3071 156.77 18.3749 156.567C18.4427 156.363 18.5565 156.175 18.7086 156.016C18.8608 155.856 19.0478 155.728 19.2574 155.641C19.467 155.553 19.6943 155.508 19.9242 155.508Z" fill="#F2F2F2"/>
<path d="M88.2638 178.453C89.7125 178.453 90.8869 177.365 90.8869 176.023C90.8869 174.681 89.7125 173.594 88.2638 173.594C86.815 173.594 85.6406 174.681 85.6406 176.023C85.6406 177.365 86.815 178.453 88.2638 178.453Z" fill="#CCCCCC"/>
<path d="M253.957 178.453C255.406 178.453 256.58 177.365 256.58 176.023C256.58 174.681 255.406 173.594 253.957 173.594C252.508 173.594 251.334 174.681 251.334 176.023C251.334 177.365 252.508 178.453 253.957 178.453Z" fill="#CCCCCC"/>
<path d="M136.354 142.214H95.2585C93.346 142.212 91.5125 141.507 90.1601 140.255C88.8078 139.002 88.0471 137.304 88.0449 135.533V109.619C88.0471 107.847 88.8078 106.149 90.1601 104.897C91.5125 103.644 93.346 102.939 95.2585 102.938H136.354C138.267 102.939 140.1 103.644 141.453 104.897C142.805 106.149 143.566 107.847 143.568 109.619V135.533C143.566 137.304 142.805 139.002 141.453 140.255C140.1 141.507 138.267 142.212 136.354 142.214Z" fill="#E6E6E6"/>
<path d="M191.657 142.417H150.561C148.649 142.415 146.815 141.71 145.463 140.458C144.111 139.205 143.35 137.507 143.348 135.736V109.822C143.35 108.05 144.111 106.352 145.463 105.1C146.815 103.847 148.649 103.143 150.561 103.141H191.657C193.569 103.143 195.403 103.847 196.755 105.1C198.108 106.352 198.868 108.05 198.87 109.822V135.736C198.868 137.507 198.108 139.205 196.755 140.458C195.403 141.71 193.569 142.415 191.657 142.417Z" fill="#E6E6E6"/>
<path d="M246.962 142.62H205.866C203.953 142.618 202.12 141.914 200.768 140.661C199.415 139.408 198.655 137.71 198.652 135.939V110.025C198.655 108.253 199.415 106.555 200.768 105.303C202.12 104.05 203.953 103.346 205.866 103.344H246.962C248.874 103.346 250.708 104.05 252.06 105.303C253.412 106.555 254.173 108.253 254.175 110.025V135.939C254.173 137.71 253.412 139.409 252.06 140.661C250.708 141.914 248.874 142.618 246.962 142.62Z" fill="#E6E6E6"/>
<path d="M262.701 140.797H81.7051V175.822H262.701V140.797Z" fill="#E6E6E6"/>
<path d="M88.2627 176.018H80.3933C76.4157 176.018 73.1797 172.615 73.1797 168.432V131.883H88.2627V176.018Z" fill="#E6E6E6"/>
<path d="M261.826 176.023H253.957V126.219H269.04V167.463C269.04 172.183 265.804 176.023 261.826 176.023Z" fill="#E6E6E6"/>
<path d="M143.786 148.08H88.2637V137.148C106.771 127.315 125.279 127.315 143.786 137.148V148.08Z" fill="#CCCCCC"/>
<path d="M199.089 148.284H143.566V137.351C162.074 127.518 180.582 127.518 199.089 137.351V148.284Z" fill="#CCCCCC"/>
<path d="M254.394 148.487H198.871V137.554C217.379 127.722 235.886 127.722 254.394 137.554V148.487Z" fill="#CCCCCC"/>
<path d="M77.5513 141.202C84.6741 141.202 90.4483 135.854 90.4483 129.257C90.4483 122.66 84.6741 117.312 77.5513 117.312C70.4285 117.312 64.6543 122.66 64.6543 129.257C64.6543 135.854 70.4285 141.202 77.5513 141.202Z" fill="#CCCCCC"/>
<path d="M266.417 140.796C273.539 140.796 279.314 135.448 279.314 128.851C279.314 122.254 273.539 116.906 266.417 116.906C259.294 116.906 253.52 122.254 253.52 128.851C253.52 135.448 259.294 140.796 266.417 140.796Z" fill="#CCCCCC"/>
<path d="M228.425 105.45C228.455 105.642 228.468 105.836 228.465 106.03L243.925 115.899L248.047 114.091L251.806 119.497L244.843 123.354C244.281 123.665 243.624 123.799 242.973 123.736C242.321 123.673 241.709 123.415 241.228 123.002L225.572 109.544C224.795 109.746 223.97 109.725 223.207 109.483C222.443 109.24 221.778 108.788 221.298 108.187C220.819 107.586 220.549 106.864 220.523 106.117C220.498 105.37 220.719 104.633 221.157 104.005C221.594 103.377 222.228 102.887 222.973 102.601C223.719 102.315 224.541 102.245 225.33 102.402C226.119 102.559 226.838 102.935 227.39 103.479C227.943 104.024 228.304 104.711 228.425 105.45V105.45Z" fill="#947C7C"/>
<path d="M244.224 115.05C244.292 114.833 244.41 114.631 244.57 114.459C244.729 114.288 244.927 114.15 245.15 114.055L252.923 110.757C253.973 110.124 255.251 109.902 256.477 110.14C257.702 110.379 258.776 111.057 259.463 112.028C260.149 112.998 260.392 114.181 260.138 115.317C259.884 116.453 259.154 117.449 258.108 118.088L251.682 123.351C251.499 123.501 251.282 123.613 251.048 123.679C250.814 123.744 250.567 123.763 250.324 123.732C250.082 123.702 249.849 123.623 249.642 123.502C249.435 123.381 249.259 123.219 249.126 123.029L244.432 116.35C244.299 116.16 244.211 115.946 244.175 115.721C244.139 115.497 244.155 115.268 244.224 115.05Z" fill="#3C85FF"/>
<path d="M228.231 106.093L228.153 106.098L227.941 103.382C227.873 102.514 227.267 101.847 226.587 101.893L222.079 102.195C221.399 102.24 220.148 103.032 220.216 103.9L220.27 104.599L221.379 118.799C221.447 119.667 222.809 120.283 223.489 120.237L227.996 119.935C228.677 119.89 229.173 119.149 229.105 118.281L228.304 108.031L228.382 108.026L228.231 106.093Z" fill="#3F3D56"/>
<path d="M227.68 103.411L228.842 118.288C228.893 118.936 228.522 119.489 228.014 119.523L223.485 119.827C222.977 119.861 222.524 119.363 222.474 118.714L221.311 103.838C221.261 103.189 221.631 102.636 222.139 102.602L222.689 102.565C222.651 102.698 222.659 102.838 222.712 102.965C222.766 103.093 222.861 103.202 222.986 103.276C223.038 103.3 223.095 103.31 223.153 103.306L225.736 103.133C225.977 103.117 226.153 102.854 226.129 102.546C226.123 102.475 226.107 102.405 226.08 102.338L226.668 102.299C227.176 102.265 227.629 102.762 227.68 103.411Z" fill="white"/>
<path d="M164.14 137.765L162.646 133.695L178.886 126.422L181.09 132.429L164.14 137.765Z" fill="#947C7C"/>
<path d="M160.262 140.139L155.445 127.015L155.625 126.959C156.349 126.731 157.114 126.637 157.878 126.683C158.641 126.729 159.387 126.914 160.073 127.227C160.76 127.54 161.373 127.975 161.877 128.508C162.382 129.04 162.768 129.66 163.015 130.33L163.015 130.331L165.957 138.346L160.262 140.139Z" fill="#2F2E41"/>
<path d="M228.592 140.668C225.109 140.849 221.636 140.176 218.524 138.716L199.429 126.684L177.132 134.331C176.54 134.518 175.894 134.489 175.324 134.252C174.754 134.014 174.302 133.585 174.06 133.051L172.968 130.616C172.718 130.069 172.711 129.452 172.948 128.9C173.184 128.347 173.645 127.903 174.232 127.662L195.534 118.802C198.091 117.743 200.96 117.513 203.676 118.15L233.249 125.13L241.065 133.727L240.978 133.838C237.141 138.742 232.589 140.4 228.592 140.668Z" fill="#2F2E41"/>
<path d="M252.744 104.74C257.879 104.74 262.042 100.884 262.042 96.1276C262.042 91.3713 257.879 87.5156 252.744 87.5156C247.608 87.5156 243.445 91.3713 243.445 96.1276C243.445 100.884 247.608 104.74 252.744 104.74Z" fill="#947C7C"/>
<path d="M243.2 137.559L228.234 127.244L238.44 120.526C238.149 119.656 236.854 114.681 243.936 111.29C246.178 110.217 247.793 109.293 248.737 108.544C250.076 107.474 251.791 106.895 253.559 106.915C254.674 106.931 255.769 107.187 256.758 107.664C257.747 108.14 258.603 108.823 259.258 109.658C259.913 110.494 260.349 111.459 260.532 112.477C260.714 113.496 260.638 114.54 260.31 115.526C258.833 119.973 256.481 125.864 253.66 128.682C250.469 131.865 247.009 134.807 243.313 137.48L243.2 137.559Z" fill="#3C85FF"/>
<path d="M166.513 141.367L165.02 137.297L181.259 130.023L183.464 136.03L166.513 141.367Z" fill="#947C7C"/>
<path d="M162.635 143.748L157.818 130.625L157.998 130.568C158.722 130.34 159.487 130.247 160.251 130.293C161.014 130.339 161.76 130.523 162.447 130.837C163.133 131.15 163.746 131.585 164.25 132.117C164.755 132.65 165.141 133.269 165.388 133.94L165.388 133.94L168.33 141.955L162.635 143.748Z" fill="#2F2E41"/>
<path d="M230.965 144.27C227.482 144.451 224.009 143.777 220.897 142.317L201.802 130.286L179.505 137.933C178.913 138.119 178.267 138.091 177.697 137.853C177.127 137.615 176.675 137.186 176.433 136.652L175.341 134.218C175.091 133.67 175.084 133.054 175.321 132.501C175.557 131.949 176.018 131.505 176.605 131.264L197.907 122.404C200.464 121.344 203.333 121.114 206.049 121.752L235.622 128.731L243.438 137.329L243.351 137.44C239.514 142.343 234.963 144.002 230.965 144.27Z" fill="#2F2E41"/>
<path d="M226.673 115.781C226.789 115.943 226.891 116.113 226.978 116.289L245.51 119.077L248.4 115.809L254.296 119.204L249.787 125.45C249.422 125.955 248.891 126.336 248.273 126.537C247.655 126.739 246.982 126.749 246.357 126.566L225.987 120.612C225.379 121.103 224.623 121.411 223.821 121.494C223.019 121.578 222.209 121.434 221.498 121.08C220.787 120.727 220.209 120.182 219.84 119.517C219.472 118.851 219.331 118.098 219.436 117.357C219.541 116.616 219.888 115.922 220.429 115.368C220.97 114.814 221.681 114.425 222.467 114.254C223.252 114.083 224.075 114.137 224.827 114.41C225.578 114.683 226.222 115.161 226.673 115.781Z" fill="#947C7C"/>
<path d="M245.387 118.191C245.348 117.967 245.361 117.738 245.426 117.519C245.491 117.301 245.607 117.098 245.764 116.924L251.264 110.86C251.92 109.872 252.972 109.165 254.19 108.894C255.408 108.624 256.693 108.811 257.761 109.416C258.83 110.021 259.597 110.994 259.892 112.121C260.188 113.248 259.989 114.438 259.339 115.43L255.964 122.734C255.868 122.943 255.724 123.129 255.543 123.282C255.362 123.434 255.147 123.549 254.914 123.617C254.68 123.686 254.434 123.707 254.191 123.679C253.948 123.652 253.714 123.576 253.506 123.457L246.176 119.283C245.968 119.164 245.789 119.005 245.653 118.816C245.517 118.628 245.426 118.415 245.387 118.191Z" fill="#3C85FF"/>
<path d="M250.258 105.616C252.96 102.397 254.459 98.4506 254.527 94.3734C253.255 95.2487 251.816 95.8927 250.285 96.2713C248.66 96.672 246.874 96.7526 245.344 96.1071C243.19 95.1985 241.916 92.8813 242.161 90.7012C242.405 88.5211 244.032 86.5736 246.15 85.5959C248.318 84.6568 250.791 84.5182 253.066 85.2081C254.269 84.259 255.742 83.6512 257.309 83.4576C258.876 83.2639 260.47 83.4926 261.9 84.1163C265.191 85.6124 267.011 89.0771 267.327 92.4602C267.643 95.8433 266.704 99.2071 265.774 102.492L265.669 102.863C265.379 103.885 264.537 105.847 264.537 105.847C264.537 105.847 259.647 104.953 257.705 104.381C254.889 105.323 250.258 105.616 250.258 105.616Z" fill="#2F2E41"/>
<path d="M226.949 106.435L222.965 106.702C222.864 106.709 222.765 106.678 222.69 106.617C222.614 106.556 222.567 106.47 222.56 106.377C222.552 106.285 222.585 106.193 222.651 106.123C222.717 106.052 222.81 106.009 222.91 106.002L226.894 105.735C226.944 105.732 226.994 105.738 227.041 105.752C227.088 105.766 227.132 105.789 227.17 105.82C227.207 105.85 227.238 105.886 227.26 105.928C227.283 105.969 227.296 106.014 227.3 106.06C227.303 106.106 227.297 106.152 227.281 106.196C227.266 106.239 227.241 106.28 227.208 106.315C227.176 106.35 227.136 106.378 227.091 106.399C227.047 106.419 226.998 106.432 226.949 106.435Z" fill="#3F3D56"/>
<path d="M227.086 108.185L223.102 108.452C223.052 108.455 223.002 108.45 222.955 108.435C222.908 108.421 222.864 108.398 222.827 108.368C222.789 108.337 222.758 108.301 222.736 108.259C222.713 108.218 222.7 108.173 222.696 108.127C222.693 108.081 222.699 108.035 222.715 107.991C222.73 107.948 222.755 107.907 222.788 107.872C222.82 107.838 222.86 107.809 222.905 107.788C222.949 107.768 222.998 107.756 223.047 107.752L227.032 107.485C227.132 107.479 227.231 107.509 227.307 107.57C227.383 107.631 227.429 107.717 227.437 107.81C227.444 107.902 227.411 107.994 227.345 108.064C227.28 108.135 227.186 108.178 227.086 108.185Z" fill="#3F3D56"/>
<path d="M227.221 109.935L223.237 110.202C223.137 110.208 223.038 110.178 222.963 110.117C222.887 110.056 222.84 109.97 222.833 109.877C222.826 109.785 222.859 109.693 222.924 109.623C222.99 109.553 223.082 109.509 223.182 109.502L227.167 109.235C227.267 109.229 227.366 109.259 227.442 109.32C227.518 109.381 227.564 109.467 227.572 109.56C227.579 109.652 227.546 109.744 227.48 109.814C227.415 109.885 227.321 109.928 227.221 109.935Z" fill="#3F3D56"/>
<path d="M342.621 178.998H0.378587C0.27818 178.998 0.181884 178.961 0.110885 178.895C0.0398865 178.83 0 178.741 0 178.648C0 178.555 0.0398865 178.465 0.110885 178.4C0.181884 178.334 0.27818 178.297 0.378587 178.297H342.621C342.722 178.297 342.818 178.334 342.889 178.4C342.96 178.465 343 178.555 343 178.648C343 178.741 342.96 178.83 342.889 178.895C342.818 178.961 342.722 178.998 342.621 178.998Z" fill="#3F3D56"/>
<path d="M182.018 62.2387H143.78C142.877 62.2378 142.011 61.905 141.372 61.3134C140.733 60.7218 140.374 59.9197 140.373 59.083V28.5776C140.374 27.7409 140.733 26.9388 141.372 26.3472C142.011 25.7556 142.877 25.4228 143.78 25.4219H182.018C182.921 25.4228 183.787 25.7556 184.426 26.3472C185.065 26.9388 185.424 27.7409 185.425 28.5776V59.083C185.424 59.9197 185.065 60.7218 184.426 61.3134C183.787 61.905 182.921 62.2378 182.018 62.2387ZM143.78 26.1231C143.078 26.1239 142.404 26.3827 141.907 26.8428C141.41 27.303 141.131 27.9269 141.13 28.5776V59.083C141.131 59.7337 141.41 60.3576 141.907 60.8178C142.404 61.2779 143.078 61.5367 143.78 61.5375H182.018C182.72 61.5367 183.394 61.2779 183.891 60.8178C184.387 60.3576 184.667 59.7337 184.668 59.083V28.5776C184.667 27.9269 184.387 27.303 183.891 26.8428C183.394 26.3827 182.72 26.1239 182.018 26.1231H143.78Z" fill="#F2F2F2"/>
<path d="M176.426 57.5059H149.37C148.517 57.505 147.699 57.1907 147.096 56.632C146.493 56.0732 146.153 55.3157 146.152 54.5255V33.1367C146.153 32.3465 146.493 31.5889 147.096 31.0302C147.699 30.4714 148.517 30.1571 149.37 30.1562H176.426C177.28 30.1571 178.098 30.4714 178.701 31.0302C179.304 31.5889 179.643 32.3465 179.644 33.1367V54.5255C179.643 55.3157 179.304 56.0732 178.701 56.632C178.098 57.1907 177.28 57.505 176.426 57.5059Z" fill="#E6E6E6"/>
<path d="M163.088 20.8657C164.134 20.8657 164.981 20.0808 164.981 19.1126C164.981 18.1443 164.134 17.3594 163.088 17.3594C162.043 17.3594 161.195 18.1443 161.195 19.1126C161.195 20.0808 162.043 20.8657 163.088 20.8657Z" fill="#F2F2F2"/>
<path d="M167.068 25.9483L163.089 19.7901L159.133 25.9472L158.482 25.5889L163.088 18.4219L167.718 25.5878L167.068 25.9483Z" fill="#F2F2F2"/>
<path d="M167.441 41.3747C167.44 40.8441 167.377 40.315 167.253 39.7969H161.573C161.171 39.7969 160.786 39.9447 160.502 40.2077C160.218 40.4707 160.059 40.8274 160.059 41.1994V48.7116C162.063 48.5798 163.939 47.7497 165.308 46.3884C166.678 45.027 167.44 43.2356 167.441 41.3747Z" fill="#3C85FF"/>
<path d="M159.49 49.0921C157.919 49.0926 156.38 48.6816 155.051 47.9066C153.721 47.1316 152.655 46.0242 151.976 44.7122C151.297 43.4001 151.033 41.937 151.213 40.4917C151.394 39.0464 152.012 37.6778 152.996 36.544C153.981 35.4102 155.291 34.5573 156.777 34.0839C158.262 33.6104 159.862 33.5357 161.391 33.8684C162.921 34.201 164.317 34.9275 165.42 35.9638C166.522 37.0002 167.286 38.3042 167.623 39.7254L167.723 40.1508H161.572C161.271 40.1512 160.982 40.2621 160.77 40.4593C160.557 40.6565 160.437 40.9239 160.437 41.2028V49.0416L160.019 49.069C159.844 49.0808 159.668 49.0921 159.49 49.0921ZM159.49 34.3653C157.482 34.3653 155.556 35.1042 154.136 36.4193C152.716 37.7345 151.918 39.5182 151.918 41.3781C151.918 43.238 152.716 45.0217 154.136 46.3368C155.556 47.652 157.482 48.3908 159.49 48.3908C159.554 48.3908 159.617 48.3891 159.679 48.3863V41.2028C159.68 40.7379 159.88 40.2923 160.234 39.9637C160.589 39.635 161.07 39.4501 161.572 39.4496H166.767C166.309 37.9885 165.352 36.704 164.041 35.7877C162.729 34.8714 161.133 34.3725 159.49 34.3653Z" fill="white"/>
<path d="M170.659 51.367H161.573C161.071 51.3664 160.59 51.1815 160.235 50.8529C159.88 50.5242 159.68 50.0786 159.68 49.6138V48.384L160.032 48.3609C161.115 48.2916 162.17 48.0064 163.124 47.525C164.078 47.0435 164.909 46.377 165.559 45.5711C166.21 44.7651 166.665 43.8386 166.893 42.8549C167.122 41.8711 167.118 40.8533 166.883 39.8709L166.783 39.4453H170.659C171.161 39.4459 171.642 39.6307 171.997 39.9594C172.351 40.2881 172.551 40.7337 172.552 41.1985V49.6138C172.551 50.0786 172.351 50.5242 171.997 50.8529C171.642 51.1815 171.161 51.3664 170.659 51.367ZM160.437 49.0303V49.6138C160.437 49.8927 160.557 50.16 160.77 50.3572C160.983 50.5544 161.272 50.6654 161.573 50.6657H170.659C170.96 50.6654 171.249 50.5544 171.461 50.3572C171.674 50.16 171.794 49.8927 171.794 49.6138V41.1985C171.794 40.9196 171.674 40.6522 171.461 40.455C171.249 40.2578 170.96 40.1469 170.659 40.1466H167.711C167.782 40.5523 167.819 40.9627 167.819 41.3738C167.812 43.2653 167.057 45.0889 165.697 46.4997C164.337 47.9105 162.465 48.8108 160.437 49.0303Z" fill="white"/>
</g>
<defs>
<clipPath id="clip0_1646_19480">
<rect width="343" height="179" fill="white"/>
</clipPath>
</defs>
</svg>
