<svg width="343" height="152" viewBox="0 0 343 152" fill="none" xmlns="http://www.w3.org/2000/svg">
<g clip-path="url(#clip0_1646_19568)">
<path d="M43.5203 149.813L42.9316 149.684C49.4948 121.297 65.9884 95.5186 89.3742 77.0981C107.055 63.1932 128.083 53.8935 150.479 50.0747C172.875 46.2559 195.902 48.0436 217.391 55.2695C238.881 62.4954 258.126 74.9218 273.314 91.3785C288.503 107.835 299.136 127.781 304.211 149.337L303.623 149.467C289.73 90.1385 236.267 48.7023 173.612 48.7023C111.777 48.7023 57.0657 91.2253 43.5203 149.813Z" fill="#3F3D56"/>
<path d="M271.393 80.4585C280.442 80.4585 287.778 73.3236 287.778 64.5222C287.778 55.7209 280.442 48.5859 271.393 48.5859C262.344 48.5859 255.008 55.7209 255.008 64.5222C255.008 73.3236 262.344 80.4585 271.393 80.4585Z" fill="#FF6584"/>
<path d="M265.17 128.234H264.566V151.413H265.17V128.234Z" fill="#3F3D56"/>
<path d="M270.738 131.188C270.776 139.293 264.913 145.89 264.913 145.89C264.913 145.89 258.988 139.346 258.949 131.241C258.911 123.136 264.774 116.539 264.774 116.539C264.774 116.539 270.699 123.083 270.738 131.188Z" fill="#3C85FF"/>
<path opacity="0.1" d="M270.738 131.188C270.776 139.293 264.913 145.89 264.913 145.89C264.913 145.89 258.988 139.346 258.949 131.241C258.911 123.136 264.774 116.539 264.774 116.539C264.774 116.539 270.699 123.083 270.738 131.188Z" fill="black"/>
<path opacity="0.4" d="M151.143 82.149C156.35 82.149 160.57 78.0443 160.57 72.9808C160.57 67.9173 156.35 63.8125 151.143 63.8125C145.937 63.8125 141.717 67.9173 141.717 72.9808C141.717 78.0443 145.937 82.149 151.143 82.149Z" fill="#3C85FF"/>
<path opacity="0.4" d="M133.697 83.7926C137.349 83.7926 140.309 80.9132 140.309 77.3612C140.309 73.8092 137.349 70.9297 133.697 70.9297C130.045 70.9297 127.084 73.8092 127.084 77.3612C127.084 80.9132 130.045 83.7926 133.697 83.7926Z" fill="#3C85FF"/>
<path opacity="0.4" d="M62.8041 102.277C66.4562 102.277 69.4168 99.3975 69.4168 95.8455C69.4168 92.2935 66.4562 89.4141 62.8041 89.4141C59.152 89.4141 56.1914 92.2935 56.1914 95.8455C56.1914 99.3975 59.152 102.277 62.8041 102.277Z" fill="#3C85FF"/>
<path opacity="0.4" d="M258.325 81.399C263.531 81.399 267.752 77.2943 267.752 72.2308C267.752 67.1673 263.531 63.0625 258.325 63.0625C253.119 63.0625 248.898 67.1673 248.898 72.2308C248.898 77.2943 253.119 81.399 258.325 81.399Z" fill="#3C85FF"/>
<path d="M17.084 148.834C17.595 150.672 19.3454 151.81 19.3454 151.81C19.3454 151.81 20.2672 149.969 19.7562 148.131C19.2452 146.294 17.4948 145.156 17.4948 145.156C17.4948 145.156 16.573 146.997 17.084 148.834Z" fill="#3F3D56"/>
<path d="M17.8345 148.439C19.2367 149.767 19.408 151.808 19.408 151.808C19.408 151.808 17.3058 151.696 15.9036 150.368C14.5014 149.041 14.3301 147 14.3301 147C14.3301 147 16.4323 147.112 17.8345 148.439Z" fill="#3C85FF"/>
<path d="M201.707 148.834C202.218 150.672 203.968 151.81 203.968 151.81C203.968 151.81 204.89 149.969 204.379 148.131C203.868 146.294 202.118 145.156 202.118 145.156C202.118 145.156 201.196 146.997 201.707 148.834Z" fill="#3F3D56"/>
<path d="M202.458 148.439C203.86 149.767 204.031 151.808 204.031 151.808C204.031 151.808 201.929 151.696 200.527 150.368C199.124 149.041 198.953 147 198.953 147C198.953 147 201.055 147.112 202.458 148.439Z" fill="#3C85FF"/>
<path d="M20.5547 135.023L19.3066 133L30.9554 123.289H60.9095V126.121L50.0928 137.451L37.6117 139.879L20.5547 135.023Z" fill="#3F3D56"/>
<path d="M66.0669 128.987V122.656H62.1451V124.653L60.9107 123.288L50.926 132.999L49.2617 134.618L47.1816 142.71L50.926 151.612H70.0631V133.404L66.0669 128.987Z" fill="#CCCCCC"/>
<path d="M50.9247 133H19.3066V151.613H50.9247V133Z" fill="#F2F2F2"/>
<path d="M46.5568 138.867H39.9004V144.532H46.5568V138.867Z" fill="#3F3D56"/>
<path d="M37.1955 138.664H31.3711V151.612H37.1955V138.664Z" fill="#CCCCCC"/>
<path d="M24.7148 140.687V138.664H22.2188V140.687H24.5066H24.7148Z" fill="#3F3D56"/>
<path d="M24.5066 142.312H22.2188V144.336H24.7148V142.312H24.5066Z" fill="#3F3D56"/>
<path d="M28.8751 138.664H26.3789V140.687H28.8751V138.664Z" fill="#3F3D56"/>
<path d="M28.8751 142.312H26.3789V144.336H28.8751V142.312Z" fill="#3F3D56"/>
<path d="M59.8694 140.891V138.867H57.373V140.891H59.6612H59.8694Z" fill="#3F3D56"/>
<path d="M59.6612 142.508H57.373V144.531H59.8694V142.508H59.6612Z" fill="#3F3D56"/>
<path d="M64.0294 138.867H61.5332V140.89H64.0294V138.867Z" fill="#3F3D56"/>
<path d="M64.0294 142.508H61.5332V144.531H64.0294V142.508Z" fill="#3F3D56"/>
<path d="M140.922 135.023L139.674 133L151.323 123.289H181.277V126.121L170.46 137.451L157.979 139.879L140.922 135.023Z" fill="#3F3D56"/>
<path d="M186.432 128.987V122.656H182.51V124.653L181.276 123.288L171.291 132.999L169.627 134.618L167.547 142.71L171.291 151.612H190.428V133.404L186.432 128.987Z" fill="#CCCCCC"/>
<path d="M171.292 133H139.674V151.613H171.292V133Z" fill="#F2F2F2"/>
<path d="M166.924 138.867H160.268V144.532H166.924V138.867Z" fill="#3F3D56"/>
<path d="M157.563 138.664H151.738V151.612H157.563V138.664Z" fill="#CCCCCC"/>
<path d="M145.082 140.687V138.664H142.586V140.687H144.874H145.082Z" fill="#3F3D56"/>
<path d="M144.874 142.312H142.586V144.336H145.082V142.312H144.874Z" fill="#3F3D56"/>
<path d="M149.242 138.664H146.746V140.687H149.242V138.664Z" fill="#3F3D56"/>
<path d="M149.242 142.312H146.746V144.336H149.242V142.312Z" fill="#3F3D56"/>
<path d="M180.237 140.891V138.867H177.74V140.891H180.028H180.237Z" fill="#3F3D56"/>
<path d="M180.028 142.508H177.74V144.531H180.237V142.508H180.028Z" fill="#3F3D56"/>
<path d="M184.397 138.867H181.9V140.89H184.397V138.867Z" fill="#3F3D56"/>
<path d="M184.397 142.508H181.9V144.531H184.397V142.508Z" fill="#3F3D56"/>
<path d="M84.623 101.039L82.543 99.4204L94.1917 89.3047H123.73V98.2066L104.592 110.75L84.623 101.039Z" fill="#3F3D56"/>
<path d="M129.115 94.9791V89.5068H125.193V90.8471L123.73 89.3047L114.161 99.4204L110.417 101.848L104.611 143.102L113.367 151.617H133.714V99.825L129.115 94.9791Z" fill="#CCCCCC"/>
<path d="M114.161 99.4219H82.543V151.619H114.161V99.4219Z" fill="#F2F2F2"/>
<path d="M100.641 138.867H94.8164V151.613H100.641V138.867Z" fill="#CCCCCC"/>
<path d="M88.5761 142.507V140.484H86.0801V142.507H88.3682H88.5761Z" fill="#3F3D56"/>
<path d="M88.3682 144.133H86.0801V146.156H88.5761V144.133H88.3682Z" fill="#3F3D56"/>
<path d="M92.7364 140.484H90.2402V142.508H92.7364V140.484Z" fill="#3F3D56"/>
<path d="M92.7364 144.133H90.2402V146.156H92.7364V144.133Z" fill="#3F3D56"/>
<path d="M105.633 142.507V140.484H103.137V142.507H105.425H105.633Z" fill="#3F3D56"/>
<path d="M105.425 144.133H103.137V146.156H105.633V144.133H105.425Z" fill="#3F3D56"/>
<path d="M109.793 140.484H107.297V142.508H109.793V140.484Z" fill="#3F3D56"/>
<path d="M109.793 144.133H107.297V146.156H109.793V144.133Z" fill="#3F3D56"/>
<path d="M123.105 102.046V100.023H120.609V102.046H122.898H123.105Z" fill="#3F3D56"/>
<path d="M122.898 103.664H120.609V105.687H123.105V103.664H122.898Z" fill="#3F3D56"/>
<path d="M127.266 100.023H124.77V102.047H127.266V100.023Z" fill="#3F3D56"/>
<path d="M127.266 103.664H124.77V105.687H127.266V103.664Z" fill="#3F3D56"/>
<path d="M123.105 113.375V111.352H120.609V113.375H122.898H123.105Z" fill="#3F3D56"/>
<path d="M122.898 115H120.609V117.023H123.105V115H122.898Z" fill="#3F3D56"/>
<path d="M127.266 111.352H124.77V113.375H127.266V111.352Z" fill="#3F3D56"/>
<path d="M127.266 115H124.77V117.023H127.266V115Z" fill="#3F3D56"/>
<path d="M123.105 124.711V122.688H120.609V124.711H122.898H123.105Z" fill="#3F3D56"/>
<path d="M122.898 126.328H120.609V128.351H123.105V126.328H122.898Z" fill="#3F3D56"/>
<path d="M127.266 122.688H124.77V124.711H127.266V122.688Z" fill="#3F3D56"/>
<path d="M127.266 126.328H124.77V128.351H127.266V126.328Z" fill="#3F3D56"/>
<path d="M123.105 136.039V134.016H120.609V136.039H122.898H123.105Z" fill="#3F3D56"/>
<path d="M122.898 137.656H120.609V139.679H123.105V137.656H122.898Z" fill="#3F3D56"/>
<path d="M127.266 134.016H124.77V136.039H127.266V134.016Z" fill="#3F3D56"/>
<path d="M127.266 137.656H124.77V139.679H127.266V137.656Z" fill="#3F3D56"/>
<path d="M110.21 102.047H86.0801V106.902H110.21V102.047Z" fill="#3F3D56"/>
<path d="M110.21 111.758H86.0801V116.613H110.21V111.758Z" fill="#3F3D56"/>
<path d="M110.21 121.469H86.0801V126.324H110.21V121.469Z" fill="#3F3D56"/>
<path d="M110.21 131.18H86.0801V136.035H110.21V131.18Z" fill="#3F3D56"/>
<path d="M206.197 101.039L204.117 99.4204L215.766 89.3047H245.304V98.2066L226.167 110.75L206.197 101.039Z" fill="#3F3D56"/>
<path d="M250.689 94.9791V89.5068H246.768V90.8471L245.304 89.3047L235.735 99.4204L231.991 101.848L226.186 143.102L234.941 151.617H255.289V99.825L250.689 94.9791Z" fill="#CCCCCC"/>
<path d="M235.735 99.4219H204.117V151.619H235.735V99.4219Z" fill="#F2F2F2"/>
<path d="M222.213 138.867H216.389V151.613H222.213V138.867Z" fill="#CCCCCC"/>
<path d="M210.148 142.507V140.484H207.652V142.507H209.941H210.148Z" fill="#3F3D56"/>
<path d="M209.941 144.133H207.652V146.156H210.148V144.133H209.941Z" fill="#3F3D56"/>
<path d="M214.309 140.484H211.812V142.508H214.309V140.484Z" fill="#3F3D56"/>
<path d="M214.309 144.133H211.812V146.156H214.309V144.133Z" fill="#3F3D56"/>
<path d="M227.205 142.507V140.484H224.709V142.507H226.997H227.205Z" fill="#3F3D56"/>
<path d="M226.997 144.133H224.709V146.156H227.205V144.133H226.997Z" fill="#3F3D56"/>
<path d="M231.367 140.484H228.871V142.508H231.367V140.484Z" fill="#3F3D56"/>
<path d="M231.367 144.133H228.871V146.156H231.367V144.133Z" fill="#3F3D56"/>
<path d="M244.68 102.046V100.023H242.184V102.046H244.472H244.68Z" fill="#3F3D56"/>
<path d="M244.472 103.664H242.184V105.687H244.68V103.664H244.472Z" fill="#3F3D56"/>
<path d="M248.84 100.023H246.344V102.047H248.84V100.023Z" fill="#3F3D56"/>
<path d="M248.84 103.664H246.344V105.687H248.84V103.664Z" fill="#3F3D56"/>
<path d="M244.68 113.375V111.352H242.184V113.375H244.472H244.68Z" fill="#3F3D56"/>
<path d="M244.472 115H242.184V117.023H244.68V115H244.472Z" fill="#3F3D56"/>
<path d="M248.84 111.352H246.344V113.375H248.84V111.352Z" fill="#3F3D56"/>
<path d="M248.84 115H246.344V117.023H248.84V115Z" fill="#3F3D56"/>
<path d="M244.68 124.711V122.688H242.184V124.711H244.472H244.68Z" fill="#3F3D56"/>
<path d="M244.472 126.328H242.184V128.351H244.68V126.328H244.472Z" fill="#3F3D56"/>
<path d="M248.84 122.688H246.344V124.711H248.84V122.688Z" fill="#3F3D56"/>
<path d="M248.84 126.328H246.344V128.351H248.84V126.328Z" fill="#3F3D56"/>
<path d="M244.68 136.039V134.016H242.184V136.039H244.472H244.68Z" fill="#3F3D56"/>
<path d="M244.472 137.656H242.184V139.679H244.68V137.656H244.472Z" fill="#3F3D56"/>
<path d="M248.84 134.016H246.344V136.039H248.84V134.016Z" fill="#3F3D56"/>
<path d="M248.84 137.656H246.344V139.679H248.84V137.656Z" fill="#3F3D56"/>
<path d="M231.782 102.047H207.652V106.902H231.782V102.047Z" fill="#3F3D56"/>
<path d="M231.782 111.758H207.652V116.613H231.782V111.758Z" fill="#3F3D56"/>
<path d="M231.782 121.469H207.652V126.324H231.782V121.469Z" fill="#3F3D56"/>
<path d="M231.782 131.18H207.652V136.035H231.782V131.18Z" fill="#3F3D56"/>
<path d="M272.865 101.039L270.785 99.4204L282.434 89.3047H311.972V98.2066L292.835 110.75L272.865 101.039Z" fill="#3F3D56"/>
<path d="M317.357 94.9791V89.5068H313.436V90.8471L311.972 89.3047L302.403 99.4204L298.659 101.848L292.854 143.102L301.609 151.617H321.957V99.825L317.357 94.9791Z" fill="#CCCCCC"/>
<path d="M302.403 99.4219H270.785V151.619H302.403V99.4219Z" fill="#F2F2F2"/>
<path d="M288.883 138.867H283.059V151.613H288.883V138.867Z" fill="#CCCCCC"/>
<path d="M276.818 142.507V140.484H274.322V142.507H276.61H276.818Z" fill="#3F3D56"/>
<path d="M276.61 144.133H274.322V146.156H276.818V144.133H276.61Z" fill="#3F3D56"/>
<path d="M280.979 140.484H278.482V142.508H280.979V140.484Z" fill="#3F3D56"/>
<path d="M280.979 144.133H278.482V146.156H280.979V144.133Z" fill="#3F3D56"/>
<path d="M293.875 142.507V140.484H291.379V142.507H293.667H293.875Z" fill="#3F3D56"/>
<path d="M293.667 144.133H291.379V146.156H293.875V144.133H293.667Z" fill="#3F3D56"/>
<path d="M298.035 140.484H295.539V142.508H298.035V140.484Z" fill="#3F3D56"/>
<path d="M298.035 144.133H295.539V146.156H298.035V144.133Z" fill="#3F3D56"/>
<path d="M311.348 102.046V100.023H308.852V102.046H311.14H311.348Z" fill="#3F3D56"/>
<path d="M311.14 103.664H308.852V105.687H311.348V103.664H311.14Z" fill="#3F3D56"/>
<path d="M315.508 100.023H313.012V102.047H315.508V100.023Z" fill="#3F3D56"/>
<path d="M315.508 103.664H313.012V105.687H315.508V103.664Z" fill="#3F3D56"/>
<path d="M311.348 113.375V111.352H308.852V113.375H311.14H311.348Z" fill="#3F3D56"/>
<path d="M311.14 115H308.852V117.023H311.348V115H311.14Z" fill="#3F3D56"/>
<path d="M315.508 111.352H313.012V113.375H315.508V111.352Z" fill="#3F3D56"/>
<path d="M315.508 115H313.012V117.023H315.508V115Z" fill="#3F3D56"/>
<path d="M311.348 124.711V122.688H308.852V124.711H311.14H311.348Z" fill="#3F3D56"/>
<path d="M311.14 126.328H308.852V128.351H311.348V126.328H311.14Z" fill="#3F3D56"/>
<path d="M315.508 122.688H313.012V124.711H315.508V122.688Z" fill="#3F3D56"/>
<path d="M315.508 126.328H313.012V128.351H315.508V126.328Z" fill="#3F3D56"/>
<path d="M311.348 136.039V134.016H308.852V136.039H311.14H311.348Z" fill="#3F3D56"/>
<path d="M311.14 137.656H308.852V139.679H311.348V137.656H311.14Z" fill="#3F3D56"/>
<path d="M315.508 134.016H313.012V136.039H315.508V134.016Z" fill="#3F3D56"/>
<path d="M315.508 137.656H313.012V139.679H315.508V137.656Z" fill="#3F3D56"/>
<path d="M298.452 102.047H274.322V106.902H298.452V102.047Z" fill="#3F3D56"/>
<path d="M298.452 111.758H274.322V116.613H298.452V111.758Z" fill="#3F3D56"/>
<path d="M298.452 121.469H274.322V126.324H298.452V121.469Z" fill="#3F3D56"/>
<path d="M298.452 131.18H274.322V136.035H298.452V131.18Z" fill="#3F3D56"/>
<path d="M343 151.414H0V152.001H343V151.414Z" fill="#3F3D56"/>
<path d="M76.6248 128.234H76.0215V151.413H76.6248V128.234Z" fill="#3F3D56"/>
<path d="M82.1928 131.188C82.2312 139.293 76.3682 145.89 76.3682 145.89C76.3682 145.89 70.4429 139.346 70.4045 131.241C70.3661 123.136 76.2291 116.539 76.2291 116.539C76.2291 116.539 82.1544 123.083 82.1928 131.188Z" fill="#3C85FF"/>
<path d="M136.959 128.234H136.355V151.413H136.959V128.234Z" fill="#3F3D56"/>
<path d="M142.527 131.188C142.565 139.293 136.702 145.89 136.702 145.89C136.702 145.89 130.777 139.346 130.738 131.241C130.7 123.136 136.563 116.539 136.563 116.539C136.563 116.539 142.488 123.083 142.527 131.188Z" fill="#3C85FF"/>
<path d="M257.326 128.234H256.723V151.413H257.326V128.234Z" fill="#3F3D56"/>
<path d="M262.894 131.188C262.932 139.293 257.069 145.89 257.069 145.89C257.069 145.89 251.144 139.346 251.106 131.241C251.067 123.136 256.93 116.539 256.93 116.539C256.93 116.539 262.856 123.083 262.894 131.188Z" fill="#3C85FF"/>
<path d="M177.231 50.4782C183.562 50.4782 188.695 49.355 188.695 47.9695C188.695 46.5841 183.562 45.4609 177.231 45.4609C170.9 45.4609 165.768 46.5841 165.768 47.9695C165.768 49.355 170.9 50.4782 177.231 50.4782Z" fill="#3C85FF"/>
<path d="M190.203 12.9098C190.203 20.0397 176.93 40.1964 176.93 40.1964C176.93 40.1964 163.656 20.0397 163.656 12.9098C163.656 9.4859 165.055 6.20224 167.544 3.78119C170.033 1.36013 173.409 0 176.93 0C180.45 0 183.826 1.36013 186.316 3.78119C188.805 6.20224 190.203 9.4859 190.203 12.9098Z" fill="#3C85FF"/>
<path d="M176.93 20.2483C181.096 20.2483 184.472 16.9643 184.472 12.9132C184.472 8.86216 181.096 5.57812 176.93 5.57812C172.765 5.57812 169.389 8.86216 169.389 12.9132C169.389 16.9643 172.765 20.2483 176.93 20.2483Z" fill="#F2F2F2"/>
</g>
<defs>
<clipPath id="clip0_1646_19568">
<rect width="343" height="152" fill="white"/>
</clipPath>
</defs>
</svg>
