<svg width="177" height="195" viewBox="0 0 177 195" fill="none" xmlns="http://www.w3.org/2000/svg">
<g clip-path="url(#clip0_1646_19528)">
<path d="M118.252 193.585C118.254 192.779 106.273 192.107 91.493 192.084C76.713 192.061 64.7303 192.696 64.729 193.502C64.7276 194.308 76.7081 194.98 91.4882 195.003C106.268 195.026 118.251 194.391 118.252 193.585Z" fill="#E6E6E6"/>
<path d="M88.1121 141.323C72.2849 141.323 56.9474 136 44.7128 126.261C32.4782 116.522 24.1035 102.969 21.0158 87.9118C17.928 72.8548 20.3182 57.2251 27.7791 43.6859C35.2399 30.1466 47.3098 19.5355 61.9322 13.6605C76.5546 7.78556 92.8248 7.01024 107.97 11.4667C123.116 15.9231 136.2 25.3356 144.993 38.1003C153.786 50.865 157.744 66.1922 156.193 81.4703C154.642 96.7483 147.677 111.032 136.486 121.888C130.148 128.069 122.609 132.969 114.306 136.305C106.003 139.641 97.0995 141.347 88.1121 141.323ZM88.1121 9.13896C50.6913 9.13896 20.2474 38.6689 20.2474 74.9662C20.2474 111.263 50.6913 140.794 88.1121 140.794C125.533 140.794 155.977 111.263 155.977 74.9662C155.977 38.6689 125.533 9.13896 88.1121 9.13896Z" fill="#DEDBDB"/>
<path d="M49.9267 77.1016H44.7344V94.5353H49.9267V77.1016Z" fill="#3F3D56"/>
<path d="M53.3551 91.2601L40.7266 76.6875L15.3774 76.9122L0 91.4404L0.310828 91.6342H0.199759V121.853H53.321V91.6342L53.3551 91.2601Z" fill="#3F3D56"/>
<path d="M40.7395 76.7188L24.9629 94.6597V121.853H53.3208V91.2469L40.7395 76.7188Z" fill="#3C85FF"/>
<path d="M42.1371 106.812H36.3457V111.778H42.1371V106.812Z" fill="#3F3D56"/>
<path d="M42.1371 98.2188H36.3457V103.105H42.1371V98.2188Z" fill="#3F3D56"/>
<path d="M42.1371 106.812H36.3457V111.778H42.1371V106.812Z" fill="white"/>
<path d="M42.1371 98.2188H36.3457V103.105H42.1371V98.2188Z" fill="white"/>
<path d="M16.4008 105.492H10.6094V110.457H16.4008V105.492Z" fill="#3F3D56"/>
<path d="M16.4008 96.8984H10.6094V101.785H16.4008V96.8984Z" fill="#3F3D56"/>
<path d="M16.4008 105.492H10.6094V110.457H16.4008V105.492Z" fill="white"/>
<path d="M16.4008 96.8984H10.6094V101.785H16.4008V96.8984Z" fill="white"/>
<path d="M132.267 0.421875H127.074V17.8556H132.267V0.421875Z" fill="#3F3D56"/>
<path d="M123.679 14.9467V62.6349H176.8V14.9467H176.689L177 14.7529L161.622 0.224732L136.273 0L123.645 14.5727L123.679 14.9467Z" fill="#3F3D56"/>
<path d="M123.68 14.5594V62.6352H152.038V17.9725L136.261 0.03125L123.68 14.5594Z" fill="#3C85FF"/>
<path d="M140.655 30.125H134.863V35.0903H140.655V30.125Z" fill="#3F3D56"/>
<path d="M140.655 21.5312H134.863V26.4178H140.655V21.5312Z" fill="#3F3D56"/>
<path d="M140.655 30.125H134.863V35.0903H140.655V30.125Z" fill="white"/>
<path d="M140.655 21.5312H134.863V26.4178H140.655V21.5312Z" fill="white"/>
<path d="M166.391 28.8125H160.6V33.7778H166.391V28.8125Z" fill="#3F3D56"/>
<path d="M166.391 20.2188H160.6V25.1053H166.391V20.2188Z" fill="#3F3D56"/>
<path d="M166.391 28.8125H160.6V33.7778H166.391V28.8125Z" fill="white"/>
<path d="M166.391 20.2188H160.6V25.1053H166.391V20.2188Z" fill="white"/>
<path d="M140.655 47.5938H134.863V52.559H140.655V47.5938Z" fill="white"/>
<path d="M140.655 39H134.863V43.8865H140.655V39Z" fill="white"/>
<path d="M166.391 46.2812H160.6V51.2465H166.391V46.2812Z" fill="white"/>
<path d="M166.391 37.6875H160.6V42.574H166.391V37.6875Z" fill="white"/>
<path d="M91.2614 55.7404C95.8715 55.7404 99.6088 52.1153 99.6088 47.6436C99.6088 43.1719 95.8715 39.5469 91.2614 39.5469C86.6513 39.5469 82.9141 43.1719 82.9141 47.6436C82.9141 52.1153 86.6513 55.7404 91.2614 55.7404Z" fill="#947C7C"/>
<path d="M82.6895 62.3007L96.9025 62.0818C95.68 58.8144 95.1502 55.7549 96.0001 53.1098L85.1711 52.0156C86.6343 55.444 85.8071 58.8723 82.6895 62.3007Z" fill="#947C7C"/>
<path d="M70.2795 116.576L72.6397 122.681C72.8422 123.204 72.9195 123.766 72.8658 124.323C72.812 124.88 72.6287 125.418 72.3295 125.896C72.0303 126.375 71.6232 126.781 71.1386 127.084C70.6541 127.388 70.1049 127.581 69.5324 127.648C68.9847 127.713 68.4289 127.662 67.9037 127.498C67.3784 127.334 66.8961 127.061 66.4901 126.699C66.084 126.336 65.764 125.893 65.5521 125.399C65.3402 124.904 65.2414 124.371 65.2626 123.837L65.5418 116.795L67.5722 80.6875L75.9196 83.0946L70.2795 116.576Z" fill="#947C7C"/>
<path d="M79.0782 184.406L85.8463 183.75L91.9376 126.416L100.511 184.844L106.828 184.625L108.407 120.508H78.1758L79.0782 184.406Z" fill="#2F2E41"/>
<path d="M101.189 44.5764C101.189 44.5764 98.933 49.3907 97.3537 49.6095C95.7745 49.8284 93.0673 52.2355 93.5185 53.3296C93.9697 54.4238 93.7441 57.7063 89.232 57.2686C84.7199 56.8309 84.9455 56.3933 84.9455 56.3933C84.9455 56.3933 77.7262 43.0446 85.1711 39.5433C92.6161 36.042 99.1586 38.668 101.189 44.5764Z" fill="#2F2E41"/>
<path d="M107.174 181.5L106.902 187.023C106.902 187.023 111.035 193.276 105.883 193.276C105.832 193.276 105.934 193.276 105.883 193.276C102.157 193.264 98.7899 194.891 99.2303 191.302L99.8523 186.234L100.937 180.711L107.174 181.5Z" fill="#2F2E41"/>
<path d="M79.1351 181.5L79.4063 187.023C79.4063 187.023 75.2734 193.276 80.4254 193.276C80.477 193.276 80.3746 193.276 80.4254 193.276C84.1514 193.264 87.5189 194.891 87.0785 191.302L86.4565 186.234L85.3719 180.711L79.1351 181.5Z" fill="#2F2E41"/>
<path d="M75.6953 123.14L109.31 121.609C103.041 102.095 102.995 86.1277 110.89 71.425C110.89 69.8868 110.425 68.3823 109.553 67.0974C108.682 65.8125 107.441 64.8035 105.984 64.1949L96.2253 60.1172L83.8171 60.7737L75.6295 65.1416C74.0262 65.997 72.7035 67.2728 71.8128 68.8232C70.9221 70.3736 70.4993 72.1359 70.5928 73.9085C77.7609 90.5061 78.1703 106.873 75.6953 123.14Z" fill="#E6E6E6"/>
<path d="M81.7857 85.063L63.0605 81.9993L66.1456 74.5698C67.2304 71.9574 68.8835 69.6028 70.992 67.6666C73.1006 65.7305 75.6149 64.2583 78.3636 63.3507L80.2065 62.7422L81.7857 85.063Z" fill="#E6E6E6"/>
<path d="M140.524 68.3551L146.288 66.0255C146.871 65.7898 147.394 65.4335 147.821 64.9815C148.248 64.5295 148.568 63.9927 148.758 63.4084C148.949 62.8242 149.006 62.2066 148.926 61.5987C148.845 60.9908 148.629 60.4073 148.292 59.8888C147.93 59.3308 147.437 58.8632 146.854 58.5235C146.271 58.1839 145.614 57.9817 144.936 57.9332C144.258 57.8848 143.577 57.9915 142.949 58.2447C142.321 58.4979 141.764 58.8905 141.321 59.391L137.044 64.2238L120.278 75.8932L108.881 71.3043L107.523 80.4734L121.762 84.0706L140.524 68.3551Z" fill="#947C7C"/>
<path d="M110.14 84.0298L119.418 75.5593L116.962 72.6476C114.767 67.3612 109.72 65.1873 104.158 63.3507L102.315 62.7422L100.861 77.1475L110.14 84.0298Z" fill="#E6E6E6"/>
</g>
<defs>
<clipPath id="clip0_1646_19528">
<rect width="177" height="195" fill="white"/>
</clipPath>
</defs>
</svg>
