<svg width="33" height="33" viewBox="0 0 33 33" fill="none" xmlns="http://www.w3.org/2000/svg">
<g clip-path="url(#clip0_1734_18633)">
<path d="M16.0576 19.9297C13.6453 19.9297 11.6826 17.967 11.6826 15.5547C11.6826 13.1423 13.6453 11.1797 16.0576 11.1797C18.47 11.1797 20.4326 13.1423 20.4326 15.5547C20.4326 17.967 18.47 19.9297 16.0576 19.9297ZM16.0576 12.4297C14.3345 12.4297 12.9326 13.8315 12.9326 15.5547C12.9326 17.2778 14.3345 18.6797 16.0576 18.6797C17.7808 18.6797 19.1826 17.2778 19.1826 15.5547C19.1826 13.8315 17.7808 12.4297 16.0576 12.4297Z" fill="#404040"/>
<path d="M30.1826 3.67969H1.93262C0.898926 3.67969 0.0576172 4.521 0.0576172 5.55469V25.5547C0.0576172 26.5884 0.898926 27.4297 1.93262 27.4297H2.93262V28.6797C2.93262 29.3691 3.49316 29.9297 4.18262 29.9297H5.43262C6.12207 29.9297 6.68262 29.3691 6.68262 28.6797V27.4297H25.4326V28.6797C25.4326 29.3691 25.9932 29.9297 26.6826 29.9297H27.9326C28.6221 29.9297 29.1826 29.3691 29.1826 28.6797V27.4297H30.1826C31.2163 27.4297 32.0576 26.5884 32.0576 25.5547V5.55469C32.0576 4.521 31.2163 3.67969 30.1826 3.67969ZM1.30762 11.8047H5.68262C6.58105 11.8047 6.38086 12.9526 5.60522 13.0547C5.17261 13.1116 4.69238 13.0547 4.25708 13.0547C3.27393 13.0547 2.29077 13.0547 1.30762 13.0547V11.8047ZM4.43262 20.5547C5.41064 20.5547 6.49634 20.6968 7.17065 19.8181C8.0979 18.6106 7.20239 16.8047 5.68262 16.8047H4.43262V14.3047C5.41064 14.3047 6.49634 14.4468 7.17065 13.5681C8.0979 12.3606 7.20239 10.5547 5.68262 10.5547H4.43262V8.67969C4.43262 8.33521 4.71313 8.05469 5.05762 8.05469H27.0576C27.4021 8.05469 27.6826 8.33521 27.6826 8.67969V22.4297C27.6826 22.7742 27.4021 23.0547 27.0576 23.0547H5.05762C4.71313 23.0547 4.43262 22.7742 4.43262 22.4297V20.5547ZM1.30762 14.3047H3.18262V16.8047H1.30762V14.3047ZM5.68262 18.0547C6.58105 18.0547 6.38086 19.2026 5.60522 19.3047C5.17261 19.3616 4.69238 19.3047 4.25708 19.3047C3.27393 19.3047 2.29077 19.3047 1.30762 19.3047V18.0547H5.68262ZM5.43262 28.6797H4.18262V27.4297H5.43262V28.6797ZM27.9326 28.6797H26.6826V27.4297H27.9326L27.9333 28.6797C27.9333 28.6797 27.9333 28.6797 27.9326 28.6797ZM30.8076 25.5547C30.8076 25.8992 30.5271 26.1797 30.1826 26.1797H1.93262C1.58813 26.1797 1.30762 25.8992 1.30762 25.5547V20.5547H3.18262V22.4297C3.18262 23.4634 4.02393 24.3047 5.05762 24.3047H27.0576C28.0913 24.3047 28.9326 23.4634 28.9326 22.4297V8.67969C28.9326 7.646 28.0913 6.80469 27.0576 6.80469H5.05762C4.02393 6.80469 3.18262 7.646 3.18262 8.67969V10.5547H1.30762V5.55469C1.30762 5.21021 1.58813 4.92969 1.93262 4.92969H30.1826C30.5271 4.92969 30.8076 5.21021 30.8076 5.55469V25.5547Z" fill="#404040"/>
<path d="M16.0576 17.4297C15.0237 17.4297 14.1826 16.5886 14.1826 15.5547C14.1826 14.5208 15.0237 13.6797 16.0576 13.6797C17.0916 13.6797 17.9326 14.5208 17.9326 15.5547C17.9326 16.5886 17.0916 17.4297 16.0576 17.4297ZM16.0576 14.9297C15.7129 14.9297 15.4326 15.21 15.4326 15.5547C15.4326 15.8994 15.7129 16.1797 16.0576 16.1797C16.4023 16.1797 16.6826 15.8994 16.6826 15.5547C16.6826 15.21 16.4023 14.9297 16.0576 14.9297Z" fill="#404040"/>
<path d="M24.9941 20.6797C24.6489 20.6797 24.3691 20.3999 24.3691 20.0547V13.8047C24.3691 13.4595 24.6489 13.1797 24.9941 13.1797C25.3394 13.1797 25.6191 13.4595 25.6191 13.8047V20.0547C25.6191 20.3999 25.3394 20.6797 24.9941 20.6797Z" fill="#404040"/>
<path d="M24.9963 11.9297C24.6511 11.9297 24.3711 11.6499 24.3711 11.3047C24.3711 10.9595 24.6506 10.6797 24.9958 10.6797H24.9963C25.3416 10.6797 25.6213 10.9595 25.6213 11.3047C25.6213 11.6499 25.3416 11.9297 24.9963 11.9297Z" fill="#404040"/>
</g>
<defs>
<clipPath id="clip0_1734_18633">
<rect width="32" height="32" fill="white" transform="translate(0.0576172 0.804688)"/>
</clipPath>
</defs>
</svg>
