<svg width="21" height="21" viewBox="0 0 21 21" fill="none" xmlns="http://www.w3.org/2000/svg">
<g clip-path="url(#clip0_2518_1314)">
<path d="M14.5547 14.5547L19.9601 19.9601" stroke="#3C85FF" stroke-width="1.35135" stroke-miterlimit="10"/>
<path d="M9.28378 2.12162C13.2027 2.12162 16.3108 5.22973 16.3108 9.14865C16.3108 13.0676 13.2027 16.1757 9.28378 16.1757C5.36486 16.1757 2.12162 13.0676 2.12162 9.28378C2.12162 5.36486 5.36486 2.12162 9.28378 2.12162ZM9.28378 0.5C4.41892 0.5 0.5 4.41892 0.5 9.28378C0.5 14.1486 4.41892 18.0676 9.28378 18.0676C14.1486 18.0676 18.0676 14.1486 18.0676 9.28378C17.9324 4.41892 14.0135 0.5 9.28378 0.5Z" fill="#3C85FF"/>
</g>
<defs>
<clipPath id="clip0_2518_1314">
<rect width="20" height="20" fill="white" transform="translate(0.5 0.5)"/>
</clipPath>
</defs>
</svg>
