<svg width="33" height="33" viewBox="0 0 33 33" fill="none" xmlns="http://www.w3.org/2000/svg">
<g clip-path="url(#clip0_1734_18651)">
<path d="M16.9436 24.8203C16.5984 24.8203 16.3184 24.5405 16.3184 24.1953C16.3184 23.8501 16.5979 23.5703 16.9431 23.5703H16.9436C17.2888 23.5703 17.5686 23.8501 17.5686 24.1953C17.5686 24.5405 17.2888 24.8203 16.9436 24.8203Z" fill="#404040"/>
<path d="M28.9424 22.6497C28.3779 21.9497 27.6035 21.4473 26.7036 21.1953L26.5649 21.1565C24.8523 20.6772 23.0918 20.3247 21.3174 20.1072V16.2285C21.3174 16.0427 21.2349 15.8672 21.0923 15.7485C21.0005 15.6716 20.8892 15.624 20.7729 15.6091C21.6904 14.6541 22.2549 13.3579 22.2549 11.9329V2.22656C22.2549 1.19287 21.4136 0.351562 20.3799 0.351562H13.5049C12.4712 0.351562 11.6299 1.19287 11.6299 2.22656V11.9329C11.6299 13.3584 12.1943 14.6548 13.1111 15.6096C12.9956 15.624 12.8848 15.6716 12.793 15.7478C12.6499 15.8665 12.5674 16.0427 12.5674 16.2285V20.1035C10.7524 20.3247 8.95166 20.6873 7.19873 21.1821L7.16919 21.1909C5.31372 21.7153 4.06738 23.2803 4.06738 25.0847V31.7266C4.06738 32.0715 4.34741 32.3516 4.69238 32.3516H29.1924C29.5374 32.3516 29.8174 32.0715 29.8174 31.7266V25.0923C29.8174 24.2041 29.5149 23.3596 28.9424 22.6497C28.3779 21.9497 29.5149 23.3596 28.9424 22.6497V22.6497ZM21.0049 8.00024C19.1006 7.8772 17.2075 7.06128 16.2136 5.35596H21.0049V8.00024ZM12.8799 2.22656C12.8799 1.88208 13.1604 1.60156 13.5049 1.60156H20.3799C20.7244 1.60156 21.0049 1.88208 21.0049 2.22656V4.10596H12.8799V2.22656ZM12.8799 5.35596H14.2842C13.9473 5.99414 13.4487 6.74219 12.8799 7.0896V5.35596ZM12.8799 11.9329V8.44727C13.9705 8.13721 14.7302 7.11743 15.2598 6.17773C15.4021 6.60449 15.9475 7.08813 16.2573 7.37793C16.6892 7.78125 17.1782 8.12183 17.7024 8.39404C18.7224 8.92383 19.8618 9.18628 21.0049 9.2522V11.9329C21.0049 14.1716 19.1831 15.9941 16.9412 15.9954C14.7017 15.9946 12.8799 14.1721 12.8799 11.9329ZM20.0674 16.979V20.0186L16.9104 20.5991L13.8174 20.0203V16.9814C14.7625 17.1541 15.8411 17.2454 16.9443 17.2454H16.9524C18.0449 17.2446 19.1179 17.1533 20.0581 16.981L20.0674 16.979ZM28.5674 31.1016H17.5674V26.6946C17.5674 26.3491 17.2874 26.0696 16.9424 26.0696C16.5974 26.0696 16.3174 26.3491 16.3174 26.6946V31.1016H5.31738V25.0847C5.31738 23.8459 6.198 22.7646 7.5105 22.3936L7.53979 22.3848C9.50854 21.8284 11.543 21.4465 13.5879 21.249L16.7942 21.8491C16.813 21.8523 16.8318 21.8552 16.8511 21.8572C16.8706 21.8584 16.8899 21.8596 16.9092 21.8596C16.9473 21.8596 16.9849 21.8564 17.0225 21.8491L20.2812 21.2502C22.291 21.4446 24.291 21.8184 26.228 22.3604L26.3667 22.3992C27.6831 22.7671 28.5674 23.8491 28.5674 25.0923V31.1016Z" fill="#404040"/>
<path d="M16.9424 14.7439C15.564 14.7439 14.4424 13.79 14.4424 12.6172C14.4424 12.2722 14.7222 11.9922 15.0674 11.9922C15.4126 11.9922 15.6924 12.2722 15.6924 12.6172C15.6924 13.0925 16.2649 13.4939 16.9424 13.4939C17.6199 13.4939 18.1924 13.0925 18.1924 12.6172C18.1924 12.2722 18.4722 11.9922 18.8174 11.9922C19.1626 11.9922 19.4424 12.2722 19.4424 12.6172C19.4424 13.79 18.3208 14.7439 16.9424 14.7439Z" fill="#404040"/>
</g>
<defs>
<clipPath id="clip0_1734_18651">
<rect width="32" height="32" fill="white" transform="translate(0.942383 0.351562)"/>
</clipPath>
</defs>
</svg>
