<svg width="35" height="25" viewBox="0 0 35 25" fill="none" xmlns="http://www.w3.org/2000/svg">
<path d="M33.4947 22.8675C32.0857 24.2766 29.7931 24.2766 28.3839 22.8675C27.5827 22.0662 26.5182 21.625 25.3865 21.625C24.2548 21.625 23.1903 22.0662 22.389 22.8675C20.9799 24.2765 18.6872 24.2764 17.2783 22.8675C16.4769 22.0662 15.4124 21.625 14.2807 21.625C13.149 21.625 12.0845 22.0662 11.2832 22.8675C9.8742 24.2766 7.58151 24.2766 6.17247 22.8675C5.37117 22.0662 4.30665 21.625 3.17504 21.625C2.04334 21.625 0.978813 22.0662 0.177514 22.8675C0.055412 22.9896 0.055412 23.1875 0.177514 23.3096C0.299526 23.4317 0.497551 23.4317 0.619653 23.3096C1.30278 22.6265 2.21028 22.2502 3.17495 22.2502C4.13962 22.2502 5.04712 22.6265 5.73024 23.3096C7.38313 24.9626 10.0725 24.9624 11.7252 23.3096C12.4083 22.6265 13.3159 22.2502 14.2805 22.2502C15.2452 22.2502 16.1527 22.6265 16.8359 23.3096C18.4887 24.9624 21.178 24.9624 22.8308 23.3096C23.514 22.6265 24.4216 22.2502 25.3862 22.2502C26.3508 22.2502 27.2583 22.6265 27.9414 23.3096C28.7678 24.136 29.8534 24.5493 30.939 24.5493C32.0245 24.5493 33.1101 24.136 33.9365 23.3096C34.0586 23.1875 34.0586 22.9896 33.9365 22.8675C33.8148 22.7455 33.6169 22.7454 33.4947 22.8675Z" fill="#404040"/>
<path d="M33.4943 17.5053C32.8112 18.1884 31.9036 18.5647 30.939 18.5647C29.9743 18.5647 29.0668 18.1884 28.3837 17.5053C26.7309 15.8525 24.0416 15.8526 22.3888 17.5053C20.9798 18.9143 18.6871 18.9143 17.2781 17.5053C15.6252 15.8525 12.936 15.8523 11.2831 17.5053C10.5999 18.1884 9.69244 18.5647 8.72777 18.5647C7.7631 18.5647 6.8556 18.1884 6.17247 17.5053C4.51959 15.8525 1.8304 15.8526 0.177514 17.5053C0.055412 17.6274 0.055412 17.8253 0.177514 17.9474C0.299616 18.0694 0.497551 18.0694 0.619653 17.9474C2.0286 16.5385 4.32121 16.5383 5.73033 17.9474C6.53154 18.7486 7.59607 19.19 8.72777 19.19C9.85947 19.19 10.924 18.7486 11.7252 17.9474C13.1343 16.5385 15.4269 16.5385 16.8359 17.9474C18.4889 19.6002 21.1781 19.6002 22.8309 17.9474C24.24 16.5385 26.5327 16.5385 27.9416 17.9473C28.7429 18.7486 29.8074 19.19 30.9391 19.19C32.0708 19.19 33.1354 18.7486 33.9367 17.9474C34.0588 17.8253 34.0588 17.6274 33.9367 17.5053C33.8143 17.3832 33.6165 17.3832 33.4943 17.5053Z" fill="#404040"/>
<path d="M33.4947 20.1878C32.0857 21.5968 29.7931 21.5968 28.3839 20.1878C27.5827 19.3865 26.5182 18.9453 25.3865 18.9453C24.2548 18.9453 23.1903 19.3865 22.389 20.1878C20.9799 21.5968 18.6872 21.5968 17.2783 20.1878C16.4769 19.3865 15.4124 18.9453 14.2807 18.9453C13.149 18.9453 12.0845 19.3865 11.2832 20.1878C9.8742 21.5968 7.58151 21.5968 6.17247 20.1878C5.37117 19.3865 4.30665 18.9453 3.17504 18.9453C2.04334 18.9453 0.978813 19.3865 0.177514 20.1878C0.055412 20.3099 0.055412 20.5078 0.177514 20.6299C0.299526 20.7519 0.497551 20.7519 0.619653 20.6298C1.30278 19.9467 2.21028 19.5706 3.17495 19.5706C4.13962 19.5706 5.04712 19.9467 5.73024 20.6299C7.38313 22.2828 10.0725 22.2827 11.7252 20.6299C12.4083 19.9467 13.3159 19.5706 14.2805 19.5706C15.2452 19.5706 16.1527 19.9467 16.8359 20.6299C18.4887 22.2826 21.178 22.2826 22.8308 20.6298C23.514 19.9467 24.4216 19.5706 25.3862 19.5706C26.3508 19.5706 27.2583 19.9467 27.9414 20.6299C28.768 21.4564 29.8533 21.8695 30.939 21.8695C32.0244 21.8695 33.1102 21.4562 33.9365 20.6299C34.0586 20.5078 34.0586 20.3099 33.9365 20.1878C33.8148 20.0658 33.6169 20.0658 33.4947 20.1878Z" fill="#404040"/>
<path d="M22.8095 6.68997C22.8095 3.65163 25.2813 1.17993 28.3195 1.17993C28.4923 1.17993 28.6322 1.03997 28.6322 0.867311C28.6322 0.694564 28.4923 0.554688 28.3195 0.554688C24.9381 0.554688 22.1869 3.30443 22.1843 6.68541C22.1843 6.68684 22.1839 6.6881 22.1839 6.68961V7.95011H9.44494V6.68961C9.44494 6.68854 9.44467 6.68765 9.44467 6.68658C9.44655 3.64993 11.9176 1.18002 14.9547 1.18002C15.1274 1.18002 15.2673 1.04006 15.2673 0.8674C15.2673 0.694654 15.1274 0.554777 14.9547 0.554777C11.5717 0.554777 8.81934 3.30703 8.81934 6.69006C8.81934 6.6914 8.81969 6.69256 8.81969 6.6939V8.25889C8.81969 8.26023 8.81934 8.2614 8.81934 8.26274C8.81934 8.26416 8.81969 8.26533 8.81969 8.26666V13.3124C8.81969 13.3138 8.81934 13.315 8.81934 13.3163C8.81934 13.3177 8.81969 13.3188 8.81969 13.3203V17.7246C8.81969 17.8973 8.95966 18.0372 9.13232 18.0372C9.30497 18.0372 9.44494 17.8973 9.44494 17.7246V13.629H18.89C19.0627 13.629 19.2026 13.489 19.2026 13.3163C19.2026 13.1437 19.0627 13.0037 18.89 13.0037H9.44494V8.57536H22.184V13.0037H19.9172C19.7445 13.0037 19.6046 13.1437 19.6046 13.3163C19.6046 13.489 19.7445 13.629 19.9172 13.629H22.184V16.5737C22.184 16.7464 22.3239 16.8863 22.4966 16.8863C22.6693 16.8863 22.8092 16.7464 22.8092 16.5737V13.3194C22.8092 13.3183 22.8095 13.3174 22.8095 13.3163C22.8095 13.3153 22.8092 13.3144 22.8092 13.3133V8.26577C22.8092 8.2647 22.8095 8.26381 22.8095 8.26274C22.8095 8.26166 22.8092 8.26077 22.8092 8.2597V6.69301C22.8092 6.69203 22.8095 6.69104 22.8095 6.68997Z" fill="#404040"/>
</svg>
