<svg width="73" height="74" viewBox="0 0 73 74" fill="none" xmlns="http://www.w3.org/2000/svg">
<circle cx="36.5" cy="36.7109" r="36" fill="#0E56C0" fill-opacity="0.1" stroke="#3C85FF" stroke-dasharray="12 12"/>
<path d="M46.1075 46.9154H26.893C25.572 46.9154 24.4912 45.8346 24.4912 44.5136V28.9018C24.4912 27.5808 25.572 26.5 26.893 26.5H46.1075C47.4285 26.5 48.5094 27.5808 48.5094 28.9018V44.5136C48.5094 45.8346 47.4285 46.9154 46.1075 46.9154Z" fill="#3C85FF"/>
<path d="M43.106 33.7043C44.1009 33.7043 44.9074 32.8978 44.9074 31.9029C44.9074 30.9081 44.1009 30.1016 43.106 30.1016C42.1112 30.1016 41.3047 30.9081 41.3047 31.9029C41.3047 32.8978 42.1112 33.7043 43.106 33.7043Z" fill="#FFF9C4"/>
<path d="M34.0991 31.9062L27.4941 41.5135H40.7041L34.0991 31.9062Z" fill="#38A2DE"/>
<path d="M40.704 35.5078L35.9004 41.5124H45.5077L40.704 35.5078Z" fill="#68C0F2"/>
</svg>
