<svg width="27" height="15" viewBox="0 0 27 15" fill="none" xmlns="http://www.w3.org/2000/svg">
<path d="M0.510574 9.14929L0.526135 9.12533V9.10137C0.526135 9.08083 0.547919 9.06371 0.557255 9.04659C0.666372 8.88662 0.787099 8.73664 0.918248 8.59813C1.10408 8.39058 1.31324 8.20996 1.54065 8.06067L9.03433 1.75143C9.14171 1.64376 9.25727 1.54641 9.37977 1.46045C9.58923 1.30706 9.81633 1.18503 10.0551 1.09758C10.6749 0.868229 11.346 0.868229 11.9658 1.09758H12.0125C12.2993 1.20951 12.569 1.36881 12.8123 1.57C12.8457 1.5943 12.8779 1.62058 12.9088 1.64873L15.361 3.70274H15.3766L15.4855 3.80544L22.5435 9.7655L22.584 9.79973H22.6026L23.2655 10.392C23.4974 10.5496 23.7647 10.6326 24.0373 10.6316C24.3306 10.6323 24.6176 10.5376 24.8622 10.3593C25.1067 10.181 25.2979 9.92721 25.4116 9.62975C25.5254 9.33228 25.5566 9.00446 25.5015 8.68751C25.4463 8.37055 25.3072 8.07862 25.1016 7.84842L24.9646 7.73203L24.9273 7.70122L18.2116 2.01846C18.2032 2.01477 18.1957 2.0089 18.1898 2.00134L18.0934 1.9226C18.0119 1.85282 17.946 1.76351 17.9007 1.66147C17.8553 1.55943 17.8318 1.44736 17.8318 1.33379C17.8318 1.22021 17.8553 1.10814 17.9007 1.0061C17.946 0.90406 18.0119 0.81475 18.0934 0.744971L18.1898 0.659387C18.3097 0.556114 18.4576 0.5 18.6099 0.5C18.7622 0.5 18.9101 0.556114 19.0301 0.659387L19.1048 0.721007L19.1234 0.738124L25.5995 6.20179L25.7831 6.33872C25.8219 6.36732 25.8593 6.39817 25.8951 6.43115H25.9169V6.44827C25.9854 6.50989 26.0414 6.56466 26.0943 6.61944C26.2408 6.77775 26.3722 6.9521 26.4864 7.13979C26.4989 7.15955 26.5104 7.18012 26.5206 7.20141C26.8382 7.73276 27.005 8.35595 26.9999 8.99182C26.9991 9.8568 26.6863 10.6861 26.1303 11.2977C25.5743 11.9094 24.8205 12.2534 24.0342 12.2543C23.7246 12.2552 23.4168 12.202 23.1223 12.0968H23.0788H23.0445C22.8443 12.0194 22.6524 11.9184 22.4719 11.7955C22.3158 11.6884 22.1689 11.5658 22.0331 11.4292L14.5519 5.07208L12.0125 2.93249L11.9907 2.91195L11.9347 2.86402C11.6862 2.66068 11.3873 2.54524 11.0777 2.53301C10.7681 2.52078 10.4625 2.61234 10.2013 2.79556L9.98038 2.98384L9.96171 3.00096L7.73974 4.87353L7.71485 4.89407L7.61837 4.97965H7.59348L2.79478 9.05002L2.73876 9.09794L2.70765 9.12533L1.93898 9.77234C1.71193 10.0333 1.55965 10.3619 1.50109 10.7174C1.44252 11.0728 1.48027 11.4393 1.60962 11.7713C1.73897 12.1034 1.95422 12.3862 2.22858 12.5847C2.50294 12.7831 2.82429 12.8885 3.15266 12.8876C3.45116 12.8867 3.74419 12.7993 4.00223 12.6343L10.6183 7.04393L10.6463 7.01997L10.721 6.96177C10.8382 6.86349 10.9814 6.81026 11.1287 6.81026C11.276 6.81026 11.4193 6.86349 11.5364 6.96177L11.608 7.01997L11.6391 7.04393L14.5519 9.50532C14.6235 9.56703 14.6832 9.64382 14.7275 9.73119C14.7719 9.81857 14.7999 9.91479 14.8101 10.0142C14.8202 10.1137 14.8122 10.2143 14.7866 10.3103C14.761 10.4063 14.7182 10.4958 14.6608 10.5734L14.583 10.6727C14.4721 10.8224 14.3122 10.9184 14.1378 10.9401C13.9633 10.9619 13.788 10.9077 13.6494 10.7891L11.1287 8.66318L5.30305 13.5791C5.15325 13.7363 4.98838 13.8752 4.81135 13.9933H4.79268C4.6285 14.1028 4.45559 14.1957 4.27609 14.2706L4.16406 14.3151C3.83869 14.4385 3.49682 14.501 3.15266 14.5C2.58474 14.4994 2.02749 14.3302 1.53969 14.0103C1.05188 13.6904 0.651596 13.2316 0.381056 12.6823C0.110516 12.133 -0.020252 11.5136 0.00254356 10.8894C0.0253391 10.2651 0.200853 9.65925 0.510574 9.1356V9.14929Z" fill="#A2A2A2"/>
</svg>
