<svg width="26" height="25" viewBox="0 0 26 25" fill="none" xmlns="http://www.w3.org/2000/svg">
<path d="M19.5903 22.304C19.5976 22.304 19.6051 22.304 19.6128 22.304C19.6955 22.304 19.7984 22.3041 19.91 22.2994L20.1782 23.4103C20.184 23.4607 20.1735 23.5032 20.1572 23.5327C20.1413 23.5616 20.1177 23.5835 20.0797 23.5961C20.0127 23.6184 19.9706 23.6109 19.9504 23.6032C19.9339 23.5969 19.9045 23.5808 19.8756 23.5231L19.266 22.304H19.5903Z" stroke="black"/>
<path d="M5.91942 23.4193L5.90353 23.4511L5.89229 23.4848C5.89199 23.4857 5.89174 23.4864 5.89155 23.4868C5.8899 23.4882 5.88422 23.4924 5.87198 23.4968C5.83838 23.509 5.77938 23.5137 5.71529 23.4924C5.67733 23.4797 5.65369 23.4579 5.63777 23.429C5.62171 23.3997 5.61126 23.3578 5.61665 23.308L5.92651 22.0686C6.13759 22.1002 6.35334 22.1171 6.57267 22.1128L5.91942 23.4193Z" stroke="black"/>
<path d="M8.47196 7.6665L8.28309 7.57207M8.47196 7.6665L8.28309 7.57207M8.47196 7.6665C8.52593 7.55857 8.36404 7.45065 8.36404 7.45065L8.28309 7.57207M8.47196 7.6665C8.45751 7.69542 8.43917 7.71659 8.42215 7.73624C8.37566 7.78993 8.33899 7.83227 8.418 7.99029C8.52593 8.20614 8.47196 8.52992 8.20215 8.63785M8.28309 7.57207L7.9755 8.03346L8.03173 8.18342L8.20215 8.63785M8.20215 8.63785L8.02227 8.18815L7.96605 8.04762L7.51067 8.76499C7.59792 8.73693 7.69938 8.72606 7.80582 8.71466C7.93613 8.7007 8.0739 8.68594 8.20215 8.63785ZM7.37268 8.02492C7.25763 8.05368 7.10871 8.10522 6.96386 8.20602C5.75136 7.51374 4.6264 6.9734 3.68842 6.64577C3.6668 6.56207 3.64745 6.47753 3.63222 6.39048C3.59273 6.16486 3.60276 6.02827 3.62519 5.96097C3.63406 5.93438 3.64284 5.9079 3.65158 5.88153C3.87019 5.22207 4.06368 4.63841 4.90449 4.39317C5.32165 4.2715 5.72376 4.36009 6.05782 4.51146C6.22223 4.58596 6.35702 4.67016 6.44936 4.73493C6.47126 4.75029 6.49045 4.76433 6.50675 4.7766C6.51759 4.79314 6.52961 4.81151 6.54261 4.83145C6.60254 4.9234 6.68243 5.04733 6.76343 5.17693C6.84527 5.30787 6.92432 5.43836 6.98437 5.54511C6.99972 5.57239 7.01284 5.59639 7.02383 5.61709C7.03155 5.74497 7.05612 5.91955 7.13317 6.10254C7.23569 6.34601 7.4048 6.55216 7.63218 6.7263C7.61137 6.8005 7.60055 6.87828 7.60055 6.95823C7.60055 7.06404 7.62199 7.16377 7.63833 7.225L7.39712 7.70742L7.62197 7.85732C7.62255 7.89208 7.62515 7.92691 7.62972 7.96165C7.6305 7.96757 7.63133 7.97346 7.63222 7.9793C7.55318 7.9891 7.45884 8.00338 7.37268 8.02492ZM7.05991 5.69C7.05988 5.68997 7.05943 5.68893 7.05866 5.68697C7.05956 5.68904 7.05994 5.69003 7.05991 5.69ZM7.95406 6.93388C7.95402 6.93389 7.95327 6.93326 7.95194 6.93192C7.95343 6.93319 7.95409 6.93386 7.95406 6.93388Z" stroke="black" stroke-width="1.5"/>
<path d="M24.5338 12.1495L24.5339 12.1496L24.547 12.1447C24.6831 12.0937 24.8235 12.1218 24.9455 12.233C25.0691 12.3456 25.1394 12.5176 25.1125 12.7L24.1478 16.8803C24.1476 16.8812 24.1474 16.8821 24.1472 16.883C23.6343 19.0223 21.7285 20.5118 19.5395 20.5139L7.0249 20.3521L7.0249 20.352H7.0152C4.7944 20.352 2.92973 18.7802 2.46041 16.6292L0.788338 8.53853L0.785212 8.5234L0.781466 8.50842C0.702932 8.19428 0.960882 7.93633 1.27502 8.01486L1.28335 8.01695L1.29173 8.01884C2.85823 8.37256 5.51076 9.29704 8.93233 11.929C11.2544 13.7152 14.3279 14.0442 17.16 13.8157C20.0099 13.5858 22.7498 12.7808 24.5338 12.1495Z" stroke="black" stroke-width="1.5"/>
<path d="M14.4523 6.02374C14.4604 5.92742 14.4767 5.83618 14.4999 5.74974C14.514 6.10911 14.6001 6.41487 14.714 6.69647C14.8038 6.91848 14.8987 7.10897 14.9907 7.29364C15.1986 7.71094 15.3916 8.09854 15.4778 8.753C15.5259 9.11865 15.4707 9.43763 15.3511 9.71537C15.397 9.05413 15.2625 8.2693 14.798 7.37753L14.798 7.37752L14.796 7.37369C14.4953 6.80846 14.4238 6.36424 14.4523 6.02374Z" stroke="black"/>
<path d="M20.3351 6.02374C20.3421 5.94032 20.3553 5.8607 20.3738 5.78471C20.3883 6.12577 20.4676 6.41936 20.5748 6.69197C20.6419 6.86272 20.7203 7.0257 20.7958 7.17925C20.8103 7.20872 20.8247 7.23779 20.839 7.26663C20.9011 7.39246 20.9612 7.51392 21.0204 7.6449C21.1612 7.95655 21.2891 8.30557 21.3614 8.75922C21.408 9.12227 21.3528 9.43921 21.234 9.71537C21.2798 9.05413 21.1453 8.2693 20.6808 7.37753L20.6808 7.37752L20.6788 7.37369C20.3782 6.80846 20.3066 6.36424 20.3351 6.02374Z" stroke="black"/>
<path d="M17.4201 2.08624C17.4271 2.00282 17.4403 1.9232 17.4588 1.84721C17.4733 2.18827 17.5525 2.48186 17.6597 2.75447C17.7269 2.92522 17.8052 3.0882 17.8808 3.24175C17.8953 3.27121 17.9097 3.30029 17.9239 3.32913C17.9861 3.45495 18.0461 3.57642 18.1053 3.7074C18.2462 4.01905 18.374 4.36807 18.4463 4.82172C18.497 5.21571 18.4277 5.5554 18.2872 5.84761C18.3528 5.17057 18.2362 4.36115 17.7676 3.4436L17.7677 3.44357L17.7638 3.43619C17.4631 2.87096 17.3915 2.42674 17.4201 2.08624Z" stroke="black"/>
</svg>
