<svg width="33" height="33" viewBox="0 0 33 33" fill="none" xmlns="http://www.w3.org/2000/svg">
<g clip-path="url(#clip0_1734_18619)">
<path d="M25.7451 0.375H6.37012C5.33643 0.375 4.49512 1.21631 4.49512 2.25V30.5C4.49512 31.5337 5.33643 32.375 6.37012 32.375H25.7451C26.7788 32.375 27.6201 31.5337 27.6201 30.5V2.25C27.6201 1.21631 26.7788 0.375 25.7451 0.375ZM17.0532 1.625H22.6782V3.39746C22.6782 3.74243 22.3977 4.02246 22.0532 4.02246H17.6782C17.3333 4.02246 17.0532 3.74243 17.0532 3.39746V1.625ZM26.3701 30.5C26.3701 30.8445 26.0896 31.125 25.7451 31.125H6.37012C6.02563 31.125 5.74512 30.8445 5.74512 30.5V7.74194H16.9951C17.3401 7.74194 17.6201 7.46191 17.6201 7.11694C17.6201 6.77197 17.3401 6.49194 16.9951 6.49194H5.74512V2.25C5.74512 1.90552 6.02563 1.625 6.37012 1.625H15.8032V3.39746C15.8032 4.43115 16.6445 5.27246 17.6782 5.27246H22.0532C23.0869 5.27246 23.9282 4.43115 23.9282 3.39746V1.625H25.7451C26.0896 1.625 26.3701 1.90552 26.3701 2.25V6.49194H21.9951C21.6501 6.49194 21.3701 6.77197 21.3701 7.11694C21.3701 7.46191 21.6501 7.74194 21.9951 7.74194H26.3701V30.5Z" fill="#404040"/>
<path d="M12.6201 4.07031H8.87012C8.5249 4.07031 8.24512 3.79053 8.24512 3.44531C8.24512 3.1001 8.5249 2.82031 8.87012 2.82031H12.6201C12.9653 2.82031 13.2451 3.1001 13.2451 3.44531C13.2451 3.79053 12.9653 4.07031 12.6201 4.07031Z" fill="#404040"/>
<path d="M16.0781 26.3281C12.2874 26.3281 9.20312 23.2441 9.20312 19.4531C9.20312 15.6624 12.2874 12.5781 16.0781 12.5781C18.2612 12.5781 20.2656 13.5803 21.5781 15.3279C22.4778 16.5249 22.9531 17.9514 22.9531 19.4531C22.9531 20.9551 22.4775 22.3816 21.5779 23.5786C20.2659 25.3259 18.2612 26.3281 16.0781 26.3281ZM16.0781 13.8281C12.9766 13.8281 10.4531 16.3516 10.4531 19.4531C10.4531 22.5547 12.9766 25.0781 16.0781 25.0781C17.8643 25.0781 19.5046 24.2581 20.5784 22.8279C21.3142 21.8489 21.7031 20.6819 21.7031 19.4531C21.7031 18.2244 21.3145 17.0574 20.5786 16.0786C20.5786 16.0786 20.5786 16.0786 20.5784 16.0784C19.5046 14.6484 17.8643 13.8281 16.0781 13.8281ZM16.0781 23.8281C13.6658 23.8281 11.7031 21.8655 11.7031 19.4531C11.7031 17.0408 13.6658 15.0781 16.0781 15.0781C17.1567 15.0781 18.1929 15.4741 18.9959 16.1931C19.1284 16.3118 19.2041 16.4814 19.2039 16.6592C19.2039 16.8369 19.1279 17.0063 18.9954 17.125C18.333 17.7166 17.9531 18.5652 17.9531 19.4531C17.9531 20.3411 18.333 21.1899 18.9954 21.7822C19.1279 21.9009 19.2039 22.0701 19.2039 22.248C19.2039 22.4258 19.1282 22.5952 18.9959 22.7139C18.1934 23.4324 17.1572 23.8281 16.0781 23.8281ZM16.0781 16.3281C14.3552 16.3281 12.9531 17.73 12.9531 19.4531C12.9531 21.1763 14.3552 22.5781 16.0781 22.5781C16.6321 22.5781 17.1702 22.4324 17.6416 22.1597C17.0388 21.3938 16.7031 20.4407 16.7031 19.4531C16.7031 18.4653 17.0388 17.5125 17.6416 16.7471C17.1699 16.4741 16.6318 16.3281 16.0781 16.3281Z" fill="#404040"/>
<path d="M19.4963 7.74219C19.1511 7.74219 18.8711 7.4624 18.8711 7.11719C18.8711 6.77197 19.1506 6.49219 19.4958 6.49219H19.4963C19.8416 6.49219 20.1213 6.77197 20.1213 7.11719C20.1213 7.4624 19.8416 7.74219 19.4963 7.74219Z" fill="#404040"/>
</g>
<defs>
<clipPath id="clip0_1734_18619">
<rect width="32" height="32" fill="white" transform="translate(0.0576172 0.375)"/>
</clipPath>
</defs>
</svg>
