<svg width="33" height="24" viewBox="0 0 33 24" fill="none" xmlns="http://www.w3.org/2000/svg">
<path d="M32.6124 8.64619C32.4949 8.77293 32.3525 8.87414 32.1942 8.94353C32.0359 9.01293 31.8651 9.04902 31.6922 9.04958C31.3746 9.05019 31.0685 8.93089 30.835 8.71553C27.0791 5.18893 22.1207 3.22589 16.9686 3.22589C11.8166 3.22589 6.85811 5.18893 3.10223 8.71553C2.98332 8.83657 2.8412 8.93236 2.68438 8.99716C2.52757 9.06196 2.35928 9.09444 2.18962 9.09264C2.01995 9.09084 1.85239 9.05481 1.69698 8.98671C1.54157 8.9186 1.40151 8.81982 1.28519 8.69629C1.16888 8.57275 1.0787 8.42701 1.02006 8.26778C0.961416 8.10856 0.935524 7.93914 0.943931 7.76967C0.952339 7.6002 0.994873 7.43417 1.06898 7.28154C1.1431 7.1289 1.24726 6.9928 1.37523 6.88138C5.5973 2.9174 11.171 0.710938 16.9623 0.710938C22.7536 0.710938 28.3273 2.9174 32.5494 6.88138C32.789 7.10866 32.9298 7.42088 32.9416 7.75091C32.9534 8.08093 32.8352 8.4024 32.6124 8.64619V8.64619ZM16.9686 7.00114C12.7424 6.99633 8.67767 8.62447 5.62339 11.5455C5.49533 11.6576 5.39129 11.7944 5.31753 11.9477C5.24377 12.1011 5.20182 12.2678 5.1942 12.4378C5.18659 12.6078 5.21346 12.7775 5.27322 12.9369C5.33297 13.0962 5.42436 13.2418 5.54189 13.3648C5.65941 13.4879 5.80063 13.5859 5.95703 13.6529C6.11344 13.7199 6.2818 13.7546 6.45196 13.7548C6.62212 13.755 6.79056 13.7207 6.94713 13.6541C7.1037 13.5875 7.24517 13.4898 7.36299 13.3671C9.95223 10.8994 13.3918 9.5229 16.9686 9.5229C20.5454 9.5229 23.985 10.8994 26.5742 13.3671C26.6921 13.4898 26.8335 13.5875 26.9901 13.6541C27.1467 13.7207 27.3151 13.755 27.4853 13.7548C27.6554 13.7546 27.8238 13.7199 27.9802 13.6529C28.1366 13.5859 28.2778 13.4879 28.3953 13.3648C28.5129 13.2418 28.6043 13.0962 28.664 12.9369C28.7238 12.7775 28.7507 12.6078 28.743 12.4378C28.7354 12.2678 28.6935 12.1011 28.6197 11.9477C28.5459 11.7944 28.4419 11.6576 28.3138 11.5455C25.2596 8.62447 21.1949 6.99633 16.9686 7.00114V7.00114ZM16.9686 13.304C14.3061 13.2952 11.748 14.3397 9.85264 16.2097C9.72524 16.3233 9.62223 16.4615 9.54986 16.6161C9.47749 16.7707 9.43726 16.9384 9.43162 17.1089C9.42598 17.2795 9.45504 17.4495 9.51703 17.6085C9.57903 17.7675 9.67268 17.9123 9.79229 18.0341C9.91191 18.1558 10.055 18.252 10.2129 18.3168C10.3708 18.3816 10.5402 18.4137 10.7109 18.411C10.8815 18.4084 11.0499 18.3712 11.2057 18.3015C11.3616 18.2319 11.5016 18.1314 11.6175 18.006C13.0487 16.6047 14.9719 15.82 16.9749 15.82C18.9779 15.82 20.9012 16.6047 22.3324 18.006C22.5672 18.2389 22.8841 18.3702 23.2148 18.3716C23.4654 18.3718 23.7104 18.2973 23.9185 18.1576C24.1266 18.0179 24.2883 17.8194 24.383 17.5874C24.4777 17.3553 24.5011 17.1003 24.4502 16.8549C24.3993 16.6095 24.2764 16.3849 24.0972 16.2097C22.1987 14.3366 19.6355 13.2919 16.9686 13.304V13.304ZM16.9686 19.6069C16.4072 19.604 15.8521 19.7244 15.3423 19.9596C14.8326 20.1949 14.3808 20.5392 14.0189 20.9684C13.8325 21.2268 13.751 21.5463 13.7906 21.8624C13.8302 22.1786 13.9881 22.468 14.2325 22.6724C14.4769 22.8769 14.7897 22.9812 15.1078 22.9644C15.426 22.9476 15.726 22.811 15.9475 22.5819C16.0789 22.4431 16.2372 22.3325 16.4128 22.2569C16.5883 22.1813 16.7775 22.1423 16.9686 22.1423C17.1598 22.1423 17.3489 22.1813 17.5245 22.2569C17.7 22.3325 17.8583 22.4431 17.9897 22.5819C18.1081 22.7222 18.2558 22.835 18.4224 22.9123C18.589 22.9896 18.7704 23.0296 18.954 23.0294C19.2515 23.0297 19.5395 22.9248 19.7671 22.7332C20.0212 22.5178 20.1797 22.2107 20.2081 21.8788C20.2364 21.547 20.1323 21.2174 19.9184 20.9621C19.5558 20.5341 19.1038 20.1909 18.5941 19.9567C18.0844 19.7226 17.5295 19.6032 16.9686 19.6069V19.6069Z" fill="#404040"/>
</svg>
