<svg width="21" height="19" viewBox="0 0 21 19" fill="none" xmlns="http://www.w3.org/2000/svg">
<path fill-rule="evenodd" clip-rule="evenodd" d="M10.4986 1.06118C12.0871 0.0654566 14.1972 -0.209627 16.0201 0.369599C19.9853 1.6375 21.2163 5.92358 20.1153 9.33404C18.4164 14.6904 11.1609 18.6859 10.8532 18.8535C10.7438 18.9136 10.6227 18.9436 10.5015 18.9436C10.3804 18.9436 10.2602 18.9145 10.1508 18.8554C9.84505 18.6898 2.64232 14.7534 0.886813 9.33501L0.885836 9.33404C-0.216115 5.92261 1.01088 1.63557 4.97224 0.369599C6.83227 -0.227062 8.85935 0.0354298 10.4986 1.06118ZM5.42162 1.75277C2.21638 2.77755 1.41141 6.19576 2.28184 8.89139C3.65146 13.1164 9.06255 16.5327 10.5006 17.3783C11.9434 16.524 17.3936 13.07 18.7193 8.89526C19.5897 6.19673 18.7818 2.77852 15.5717 1.75277C14.0164 1.25781 12.2023 1.55905 10.9499 2.5199C10.6881 2.71944 10.3247 2.72331 10.061 2.52571C8.73431 1.53677 7.00128 1.24716 5.42162 1.75277ZM14.6339 3.67632C15.9654 4.10348 16.8983 5.27258 17.0126 6.65478C17.0449 7.05482 16.745 7.40545 16.3415 7.43742C16.321 7.43935 16.3014 7.44032 16.2809 7.44032C15.9029 7.44032 15.5824 7.15265 15.5512 6.77295C15.4867 5.97676 14.9494 5.30455 14.1845 5.05949C13.7986 4.93551 13.5876 4.52579 13.7117 4.14513C13.8377 3.7635 14.247 3.55621 14.6339 3.67632Z" fill="#A2A2A2"/>
</svg>
